Dakdam-B.ufo
<glyph name="uni0323" format="2">
  <advance width="2"/>
  <unicode hex="0323"/>
  <outline>
    <contour>
      <point x="-621" y="-235" type="curve" smooth="yes"/>
      <point x="-621" y="-300"/>
      <point x="-547" y="-364"/>
      <point x="-472" y="-364" type="curve"/>
      <point x="-398" y="-364"/>
      <point x="-323" y="-300"/>
      <point x="-323" y="-235" type="curve"/>
      <point x="-323" y="-171"/>
      <point x="-398" y="-107"/>
      <point x="-472" y="-107" type="curve"/>
      <point x="-547" y="-107"/>
      <point x="-621" y="-171"/>
    </contour>
  </outline>
</glyph>
<glyph name="uni179C" format="2">
  <advance width="788"/>
  <unicode hex="179C"/>
  <anchor x="394" y="0" name="M"/>
  <anchor x="600" y="1725" name="U"/>
  <outline>
    <contour>
      <point x="300" y="742" type="line"/>
      <point x="300" y="555" type="line"/>
      <point x="170" y="532"/>
      <point x="73" y="414"/>
      <point x="73" y="290" type="curve"/>
      <point x="73" y="161"/>
      <point x="181" y="31"/>
      <point x="347" y="0" type="curve"/>
      <point x="462" y="0"/>
      <point x="570" y="32"/>
      <point x="600" y="108" type="curve"/>
      <point x="600" y="736" type="line"/>
    </contour>
    <contour>
      <point x="195" y="290" type="curve" smooth="yes"/>
      <point x="195" y="363"/>
      <point x="234" y="439"/>
      <point x="300" y="458" type="curve"/>
      <point x="300" y="157" type="line"/>
      <point x="249" y="179"/>
      <point x="195" y="219"/>
    </contour>
    <contour>
      <point x="600" y="515" type="line"/>
      <point x="600" y="910" type="line" smooth="yes"/>
      <point x="600" y="975"/>
      <point x="379" y="1084"/>
      <point x="259" y="1124" type="curve" smooth="yes"/>
      <point x="257" y="1125"/>
      <point x="256" y="1126"/>
      <point x="256" y="1128" type="curve"/>
      <point x="259" y="1143"/>
      <point x="266" y="1165"/>
      <point x="284" y="1177" type="curve" smooth="yes"/>
      <point x="292" y="1183"/>
      <point x="302" y="1186"/>
      <point x="312" y="1186" type="curve" smooth="yes"/>
      <point x="371" y="1186"/>
      <point x="445" y="1093"/>
      <point x="540" y="1093" type="curve" smooth="yes"/>
      <point x="657" y="1093"/>
      <point x="769" y="1215"/>
      <point x="769" y="1380" type="curve" smooth="yes"/>
      <point x="769" y="1732"/>
      <point x="556" y="1777"/>
      <point x="459" y="1777" type="curve" smooth="yes"/>
      <point x="384" y="1777"/>
      <point x="328" y="1749"/>
      <point x="328" y="1691" type="curve" smooth="yes"/>
      <point x="328" y="1631"/>
      <point x="375" y="1589"/>
      <point x="465" y="1560" type="curve" smooth="yes"/>
      <point x="564" y="1529"/>
      <point x="648" y="1494"/>
      <point x="648" y="1330" type="curve" smooth="yes"/>
      <point x="648" y="1313"/>
      <point x="642" y="1303"/>
      <point x="633" y="1303" type="curve" smooth="yes"/>
      <point x="578" y="1303"/>
      <point x="400" y="1440"/>
      <point x="328" y="1440" type="curve" smooth="yes"/>
      <point x="244" y="1440"/>
      <point x="141" y="1165"/>
      <point x="116" y="1061" type="curve"/>
      <point x="116" y="1055"/>
      <point x="118" y="1050"/>
      <point x="123" y="1049" type="curve" smooth="yes"/>
      <point x="228" y="1037"/>
      <point x="300" y="963"/>
      <point x="300" y="919" type="curve" smooth="yes"/>
      <point x="300" y="519" type="line"/>
    </contour>
  </outline>
</glyph>
<glyph name="uni17BE" format="2">
  <advance width="2250"/>
  <unicode hex="17BE"/>
  <anchor x="2100" y="0" name="L"/>
  <anchor x="2062" y="2040" name="U"/>
  <outline>
    <contour>
      <point x="262" y="919" type="curve"/>
      <point x="262" y="108" type="line"/>
      <point x="292" y="32"/>
      <point x="400" y="0"/>
      <point x="515" y="0" type="curve"/>
      <point x="681" y="31"/>
      <point x="789" y="161"/>
      <point x="789" y="290" type="curve" smooth="yes"/>
      <point x="789" y="414"/>
      <point x="692" y="532"/>
      <point x="562" y="555" type="curve"/>
      <point x="562" y="930" type="line" smooth="yes"/>
      <point x="562" y="995"/>
      <point x="341" y="1094"/>
      <point x="221" y="1134" type="curve" smooth="yes"/>
      <point x="219" y="1135"/>
      <point x="218" y="1136"/>
      <point x="218" y="1138" type="curve"/>
      <point x="221" y="1153"/>
      <point x="228" y="1165"/>
      <point x="246" y="1177" type="curve" smooth="yes"/>
      <point x="254" y="1183"/>
      <point x="264" y="1186"/>
      <point x="274" y="1186" type="curve" smooth="yes"/>
      <point x="363" y="1186"/>
      <point x="427" y="1105"/>
      <point x="532" y="1105" type="curve" smooth="yes"/>
      <point x="608" y="1105"/>
      <point x="660" y="1260"/>
      <point x="683" y="1346" type="curve"/>
      <point x="660" y="1336"/>
      <point x="636" y="1334"/>
      <point x="613" y="1334" type="curve" smooth="yes"/>
      <point x="558" y="1334"/>
      <point x="362" y="1440"/>
      <point x="290" y="1440" type="curve" smooth="yes"/>
      <point x="206" y="1440"/>
      <point x="103" y="1165"/>
      <point x="78" y="1061" type="curve"/>
      <point x="78" y="1055"/>
      <point x="80" y="1050"/>
      <point x="85" y="1049" type="curve" smooth="yes"/>
      <point x="190" y="1037"/>
      <point x="262" y="963"/>
    </contour>
    <contour>
      <point x="1409" y="1672" type="curve" smooth="yes"/>
      <point x="1544" y="1672"/>
      <point x="1664" y="1646"/>
      <point x="1766" y="1622" type="curve" smooth="yes"/>
      <point x="1837" y="1605"/>
      <point x="1901" y="1590"/>
      <point x="1964" y="1590" type="curve" smooth="yes"/>
      <point x="1996" y="1590"/>
      <point x="2021" y="1606"/>
      <point x="2040" y="1624" type="curve" smooth="yes"/>
      <point x="2126" y="1710"/>
      <point x="2152" y="1843"/>
      <point x="2152" y="1924" type="curve" smooth="yes"/>
      <point x="2152" y="1972"/>
      <point x="2148" y="2047"/>
      <point x="2081" y="2096" type="curve" smooth="yes"/>
      <point x="2039" y="2126"/>
      <point x="1991" y="2134"/>
      <point x="1961" y="2134" type="curve" smooth="yes"/>
      <point x="1919" y="2134"/>
      <point x="1859" y="2115"/>
      <point x="1859" y="2059" type="curve" smooth="yes"/>
      <point x="1859" y="2032"/>
      <point x="1867" y="2014"/>
      <point x="1878" y="1995" type="curve"/>
      <point x="1914" y="1953"/>
      <point x="1924" y="1910"/>
      <point x="1927" y="1873" type="curve"/>
      <point x="1788" y="1995"/>
      <point x="1593" y="2077"/>
      <point x="1439" y="2077" type="curve" smooth="yes"/>
      <point x="1226" y="2077"/>
      <point x="1012" y="1950"/>
      <point x="1012" y="1811" type="curve" smooth="yes"/>
      <point x="1012" y="1721"/>
      <point x="1091" y="1661"/>
      <point x="1192" y="1661" type="curve" smooth="yes"/>
      <point x="1233" y="1661"/>
      <point x="1278" y="1665"/>
      <point x="1323" y="1669" type="curve" smooth="yes"/>
      <point x="1357" y="1672"/>
      <point x="1391" y="1672"/>
    </contour>
    <contour>
      <point x="1699" y="146" type="curve" smooth="yes"/>
      <point x="1699" y="82"/>
      <point x="1747" y="34"/>
      <point x="1811" y="34" type="curve" smooth="yes"/>
      <point x="1871" y="34"/>
      <point x="1924" y="82"/>
      <point x="1924" y="146" type="curve" smooth="yes"/>
      <point x="1924" y="206"/>
      <point x="1871" y="259"/>
      <point x="1811" y="259" type="curve" smooth="yes"/>
      <point x="1747" y="259"/>
      <point x="1699" y="206"/>
    </contour>
    <contour>
      <point x="1384" y="146" type="curve" smooth="yes"/>
      <point x="1384" y="210"/>
      <point x="1331" y="259"/>
      <point x="1271" y="259" type="curve" smooth="yes"/>
      <point x="1207" y="259"/>
      <point x="1159" y="210"/>
      <point x="1159" y="146" type="curve" smooth="yes"/>
      <point x="1159" y="86"/>
      <point x="1207" y="34"/>
      <point x="1271" y="34" type="curve" smooth="yes"/>
      <point x="1331" y="34"/>
      <point x="1384" y="86"/>
    </contour>
    <contour>
      <point x="1830" y="394" type="curve" smooth="yes"/>
      <point x="1830" y="330"/>
      <point x="1882" y="281"/>
      <point x="1942" y="281" type="curve" smooth="yes"/>
      <point x="2006" y="281"/>
      <point x="2055" y="330"/>
      <point x="2055" y="394" type="curve" smooth="yes"/>
      <point x="2055" y="454"/>
      <point x="2006" y="506"/>
      <point x="1942" y="506" type="curve" smooth="yes"/>
      <point x="1882" y="506"/>
      <point x="1830" y="454"/>
    </contour>
    <contour>
      <point x="1252" y="956" type="curve" smooth="yes"/>
      <point x="1252" y="1020"/>
      <point x="1200" y="1069"/>
      <point x="1140" y="1069" type="curve" smooth="yes"/>
      <point x="1076" y="1069"/>
      <point x="1027" y="1020"/>
      <point x="1027" y="956" type="curve" smooth="yes"/>
      <point x="1027" y="896"/>
      <point x="1076" y="844"/>
      <point x="1140" y="844" type="curve" smooth="yes"/>
      <point x="1200" y="844"/>
      <point x="1252" y="896"/>
    </contour>
    <contour>
      <point x="1252" y="394" type="curve" smooth="yes"/>
      <point x="1252" y="457"/>
      <point x="1204" y="506"/>
      <point x="1140" y="506" type="curve" smooth="yes"/>
      <point x="1080" y="506"/>
      <point x="1027" y="457"/>
      <point x="1027" y="394" type="curve" smooth="yes"/>
      <point x="1027" y="334"/>
      <point x="1080" y="281"/>
      <point x="1140" y="281" type="curve" smooth="yes"/>
      <point x="1204" y="281"/>
      <point x="1252" y="334"/>
    </contour>
    <contour>
      <point x="1830" y="956" type="curve" smooth="yes"/>
      <point x="1830" y="892"/>
      <point x="1879" y="844"/>
      <point x="1942" y="844" type="curve" smooth="yes"/>
      <point x="2002" y="844"/>
      <point x="2055" y="892"/>
      <point x="2055" y="956" type="curve" smooth="yes"/>
      <point x="2055" y="1016"/>
      <point x="2002" y="1069"/>
      <point x="1942" y="1069" type="curve" smooth="yes"/>
      <point x="1879" y="1069"/>
      <point x="1830" y="1016"/>
    </contour>
    <contour>
      <point x="1425" y="75" type="curve" smooth="yes"/>
      <point x="1425" y="11"/>
      <point x="1474" y="-38"/>
      <point x="1537" y="-38" type="curve" smooth="yes"/>
      <point x="1597" y="-38"/>
      <point x="1650" y="11"/>
      <point x="1650" y="75" type="curve" smooth="yes"/>
      <point x="1650" y="135"/>
      <point x="1597" y="187"/>
      <point x="1537" y="187" type="curve" smooth="yes"/>
      <point x="1474" y="187"/>
      <point x="1425" y="135"/>
    </contour>
    <contour>
      <point x="1384" y="1204" type="curve" smooth="yes"/>
      <point x="1384" y="1267"/>
      <point x="1335" y="1316"/>
      <point x="1271" y="1316" type="curve" smooth="yes"/>
      <point x="1211" y="1316"/>
      <point x="1159" y="1267"/>
      <point x="1159" y="1204" type="curve" smooth="yes"/>
      <point x="1159" y="1144"/>
      <point x="1211" y="1091"/>
      <point x="1271" y="1091" type="curve" smooth="yes"/>
      <point x="1335" y="1091"/>
      <point x="1384" y="1144"/>
    </contour>
    <contour>
      <point x="1875" y="675" type="curve" smooth="yes"/>
      <point x="1875" y="611"/>
      <point x="1924" y="562"/>
      <point x="1987" y="562" type="curve" smooth="yes"/>
      <point x="2047" y="562"/>
      <point x="2100" y="611"/>
      <point x="2100" y="675" type="curve" smooth="yes"/>
      <point x="2100" y="735"/>
      <point x="2047" y="787"/>
      <point x="1987" y="787" type="curve" smooth="yes"/>
      <point x="1924" y="787"/>
      <point x="1875" y="735"/>
    </contour>
    <contour>
      <point x="1650" y="1275" type="curve" smooth="yes"/>
      <point x="1650" y="1335"/>
      <point x="1597" y="1387"/>
      <point x="1537" y="1387" type="curve" smooth="yes"/>
      <point x="1474" y="1387"/>
      <point x="1425" y="1335"/>
      <point x="1425" y="1275" type="curve" smooth="yes"/>
      <point x="1425" y="1211"/>
      <point x="1474" y="1162"/>
      <point x="1537" y="1162" type="curve" smooth="yes"/>
      <point x="1597" y="1162"/>
      <point x="1650" y="1211"/>
    </contour>
    <contour>
      <point x="975" y="675" type="curve" smooth="yes"/>
      <point x="975" y="611"/>
      <point x="1024" y="562"/>
      <point x="1087" y="562" type="curve" smooth="yes"/>
      <point x="1147" y="562"/>
      <point x="1200" y="611"/>
      <point x="1200" y="675" type="curve" smooth="yes"/>
      <point x="1200" y="735"/>
      <point x="1147" y="787"/>
      <point x="1087" y="787" type="curve" smooth="yes"/>
      <point x="1024" y="787"/>
      <point x="975" y="735"/>
    </contour>
    <contour>
      <point x="1691" y="1204" type="curve" smooth="yes"/>
      <point x="1691" y="1140"/>
      <point x="1744" y="1091"/>
      <point x="1804" y="1091" type="curve" smooth="yes"/>
      <point x="1867" y="1091"/>
      <point x="1916" y="1140"/>
      <point x="1916" y="1204" type="curve" smooth="yes"/>
      <point x="1916" y="1264"/>
      <point x="1867" y="1316"/>
      <point x="1804" y="1316" type="curve" smooth="yes"/>
      <point x="1744" y="1316"/>
      <point x="1691" y="1264"/>
    </contour>
    <contour>
      <point x="1428" y="1841" type="curve" smooth="yes"/>
      <point x="1368" y="1841"/>
      <point x="1346" y="1830"/>
      <point x="1304" y="1830" type="curve" smooth="yes"/>
      <point x="1289" y="1830"/>
      <point x="1274" y="1841"/>
      <point x="1274" y="1856" type="curve" smooth="yes"/>
      <point x="1274" y="1894"/>
      <point x="1357" y="1916"/>
      <point x="1451" y="1916" type="curve" smooth="yes"/>
      <point x="1563" y="1916"/>
      <point x="1661" y="1871"/>
      <point x="1743" y="1800" type="curve"/>
      <point x="1661" y="1822"/>
      <point x="1559" y="1841"/>
    </contour>
    <contour>
      <point x="667" y="290" type="curve" smooth="yes"/>
      <point x="667" y="219"/>
      <point x="613" y="179"/>
      <point x="562" y="157" type="curve"/>
      <point x="562" y="458" type="line"/>
      <point x="628" y="439"/>
      <point x="667" y="363"/>
    </contour>
  </outline>
</glyph>
<glyph name="uni17C0" format="2">
  <advance width="2925"/>
  <unicode hex="17C0"/>
  <anchor x="2737" y="-602" name="L"/>
  <anchor x="2737" y="1725" name="U"/>
  <outline>
    <contour>
      <point x="1425" y="75" type="curve" smooth="yes"/>
      <point x="1425" y="11"/>
      <point x="1474" y="-38"/>
      <point x="1537" y="-38" type="curve" smooth="yes"/>
      <point x="1597" y="-38"/>
      <point x="1650" y="11"/>
      <point x="1650" y="75" type="curve" smooth="yes"/>
      <point x="1650" y="135"/>
      <point x="1597" y="187"/>
      <point x="1537" y="187" type="curve" smooth="yes"/>
      <point x="1474" y="187"/>
      <point x="1425" y="135"/>
    </contour>
    <contour>
      <point x="975" y="675" type="curve" smooth="yes"/>
      <point x="975" y="611"/>
      <point x="1024" y="562"/>
      <point x="1087" y="562" type="curve" smooth="yes"/>
      <point x="1147" y="562"/>
      <point x="1200" y="611"/>
      <point x="1200" y="675" type="curve" smooth="yes"/>
      <point x="1200" y="735"/>
      <point x="1147" y="787"/>
      <point x="1087" y="787" type="curve" smooth="yes"/>
      <point x="1024" y="787"/>
      <point x="975" y="735"/>
    </contour>
    <contour>
      <point x="1875" y="675" type="curve" smooth="yes"/>
      <point x="1875" y="611"/>
      <point x="1924" y="562"/>
      <point x="1987" y="562" type="curve" smooth="yes"/>
      <point x="2047" y="562"/>
      <point x="2100" y="611"/>
      <point x="2100" y="675" type="curve" smooth="yes"/>
      <point x="2100" y="735"/>
      <point x="2047" y="787"/>
      <point x="1987" y="787" type="curve" smooth="yes"/>
      <point x="1924" y="787"/>
      <point x="1875" y="735"/>
    </contour>
    <contour>
      <point x="1425" y="1275" type="curve" smooth="yes"/>
      <point x="1425" y="1211"/>
      <point x="1474" y="1162"/>
      <point x="1537" y="1162" type="curve" smooth="yes"/>
      <point x="1597" y="1162"/>
      <point x="1650" y="1211"/>
      <point x="1650" y="1275" type="curve" smooth="yes"/>
      <point x="1650" y="1335"/>
      <point x="1597" y="1387"/>
      <point x="1537" y="1387" type="curve" smooth="yes"/>
      <point x="1474" y="1387"/>
      <point x="1425" y="1335"/>
    </contour>
    <contour>
      <point x="1830" y="956" type="curve" smooth="yes"/>
      <point x="1830" y="892"/>
      <point x="1879" y="844"/>
      <point x="1942" y="844" type="curve" smooth="yes"/>
      <point x="2002" y="844"/>
      <point x="2055" y="892"/>
      <point x="2055" y="956" type="curve" smooth="yes"/>
      <point x="2055" y="1016"/>
      <point x="2002" y="1069"/>
      <point x="1942" y="1069" type="curve" smooth="yes"/>
      <point x="1879" y="1069"/>
      <point x="1830" y="1016"/>
    </contour>
    <contour>
      <point x="1691" y="1204" type="curve" smooth="yes"/>
      <point x="1691" y="1140"/>
      <point x="1744" y="1091"/>
      <point x="1804" y="1091" type="curve" smooth="yes"/>
      <point x="1867" y="1091"/>
      <point x="1916" y="1140"/>
      <point x="1916" y="1204" type="curve" smooth="yes"/>
      <point x="1916" y="1264"/>
      <point x="1867" y="1316"/>
      <point x="1804" y="1316" type="curve" smooth="yes"/>
      <point x="1744" y="1316"/>
      <point x="1691" y="1264"/>
    </contour>
    <contour>
      <point x="1699" y="146" type="curve" smooth="yes"/>
      <point x="1699" y="82"/>
      <point x="1747" y="34"/>
      <point x="1811" y="34" type="curve" smooth="yes"/>
      <point x="1871" y="34"/>
      <point x="1924" y="82"/>
      <point x="1924" y="146" type="curve" smooth="yes"/>
      <point x="1924" y="206"/>
      <point x="1871" y="259"/>
      <point x="1811" y="259" type="curve" smooth="yes"/>
      <point x="1747" y="259"/>
      <point x="1699" y="206"/>
    </contour>
    <contour>
      <point x="1830" y="394" type="curve" smooth="yes"/>
      <point x="1830" y="330"/>
      <point x="1882" y="281"/>
      <point x="1942" y="281" type="curve" smooth="yes"/>
      <point x="2006" y="281"/>
      <point x="2055" y="330"/>
      <point x="2055" y="394" type="curve" smooth="yes"/>
      <point x="2055" y="454"/>
      <point x="2006" y="506"/>
      <point x="1942" y="506" type="curve" smooth="yes"/>
      <point x="1882" y="506"/>
      <point x="1830" y="454"/>
    </contour>
    <contour>
      <point x="1252" y="394" type="curve" smooth="yes"/>
      <point x="1252" y="457"/>
      <point x="1204" y="506"/>
      <point x="1140" y="506" type="curve" smooth="yes"/>
      <point x="1080" y="506"/>
      <point x="1027" y="457"/>
      <point x="1027" y="394" type="curve" smooth="yes"/>
      <point x="1027" y="334"/>
      <point x="1080" y="281"/>
      <point x="1140" y="281" type="curve" smooth="yes"/>
      <point x="1204" y="281"/>
      <point x="1252" y="334"/>
    </contour>
    <contour>
      <point x="1384" y="146" type="curve" smooth="yes"/>
      <point x="1384" y="210"/>
      <point x="1331" y="259"/>
      <point x="1271" y="259" type="curve" smooth="yes"/>
      <point x="1207" y="259"/>
      <point x="1159" y="210"/>
      <point x="1159" y="146" type="curve" smooth="yes"/>
      <point x="1159" y="86"/>
      <point x="1207" y="34"/>
      <point x="1271" y="34" type="curve" smooth="yes"/>
      <point x="1331" y="34"/>
      <point x="1384" y="86"/>
    </contour>
    <contour>
      <point x="1384" y="1204" type="curve" smooth="yes"/>
      <point x="1384" y="1267"/>
      <point x="1335" y="1316"/>
      <point x="1271" y="1316" type="curve" smooth="yes"/>
      <point x="1211" y="1316"/>
      <point x="1159" y="1267"/>
      <point x="1159" y="1204" type="curve" smooth="yes"/>
      <point x="1159" y="1144"/>
      <point x="1211" y="1091"/>
      <point x="1271" y="1091" type="curve" smooth="yes"/>
      <point x="1335" y="1091"/>
      <point x="1384" y="1144"/>
    </contour>
    <contour>
      <point x="1252" y="956" type="curve" smooth="yes"/>
      <point x="1252" y="1020"/>
      <point x="1200" y="1069"/>
      <point x="1140" y="1069" type="curve" smooth="yes"/>
      <point x="1076" y="1069"/>
      <point x="1027" y="1020"/>
      <point x="1027" y="956" type="curve" smooth="yes"/>
      <point x="1027" y="896"/>
      <point x="1076" y="844"/>
      <point x="1140" y="844" type="curve" smooth="yes"/>
      <point x="1200" y="844"/>
      <point x="1252" y="896"/>
    </contour>
    <contour>
      <point x="2437" y="854" type="line"/>
      <point x="2437" y="-394" type="line" smooth="yes"/>
      <point x="2437" y="-439"/>
      <point x="2272" y="-469"/>
      <point x="2212" y="-469" type="curve" smooth="yes"/>
      <point x="2152" y="-469"/>
      <point x="1987" y="-439"/>
      <point x="1987" y="-394" type="curve" smooth="yes"/>
      <point x="1987" y="-150" type="line"/>
      <point x="1687" y="-150" type="line"/>
      <point x="1687" y="-413" type="line" smooth="yes"/>
      <point x="1687" y="-506"/>
      <point x="2006" y="-600"/>
      <point x="2212" y="-600" type="curve" smooth="yes"/>
      <point x="2419" y="-600"/>
      <point x="2737" y="-506"/>
      <point x="2737" y="-413" type="curve" smooth="yes"/>
      <point x="2737" y="835" type="line"/>
    </contour>
    <contour>
      <point x="262" y="919" type="curve"/>
      <point x="262" y="108" type="line"/>
      <point x="292" y="32"/>
      <point x="400" y="0"/>
      <point x="515" y="0" type="curve"/>
      <point x="681" y="31"/>
      <point x="789" y="161"/>
      <point x="789" y="290" type="curve" smooth="yes"/>
      <point x="789" y="414"/>
      <point x="692" y="532"/>
      <point x="562" y="555" type="curve"/>
      <point x="562" y="930" type="line" smooth="yes"/>
      <point x="562" y="995"/>
      <point x="341" y="1094"/>
      <point x="221" y="1134" type="curve" smooth="yes"/>
      <point x="219" y="1135"/>
      <point x="218" y="1136"/>
      <point x="218" y="1138" type="curve"/>
      <point x="221" y="1153"/>
      <point x="228" y="1165"/>
      <point x="246" y="1177" type="curve" smooth="yes"/>
      <point x="254" y="1183"/>
      <point x="264" y="1186"/>
      <point x="274" y="1186" type="curve" smooth="yes"/>
      <point x="363" y="1186"/>
      <point x="427" y="1105"/>
      <point x="532" y="1105" type="curve" smooth="yes"/>
      <point x="608" y="1105"/>
      <point x="660" y="1260"/>
      <point x="683" y="1346" type="curve"/>
      <point x="660" y="1336"/>
      <point x="636" y="1334"/>
      <point x="613" y="1334" type="curve" smooth="yes"/>
      <point x="558" y="1334"/>
      <point x="362" y="1440"/>
      <point x="290" y="1440" type="curve" smooth="yes"/>
      <point x="206" y="1440"/>
      <point x="103" y="1165"/>
      <point x="78" y="1061" type="curve"/>
      <point x="78" y="1055"/>
      <point x="80" y="1050"/>
      <point x="85" y="1049" type="curve" smooth="yes"/>
      <point x="190" y="1037"/>
      <point x="262" y="963"/>
    </contour>
    <contour>
      <point x="667" y="290" type="curve" smooth="yes"/>
      <point x="667" y="219"/>
      <point x="613" y="179"/>
      <point x="562" y="157" type="curve"/>
      <point x="562" y="458" type="line"/>
      <point x="628" y="439"/>
      <point x="667" y="363"/>
    </contour>
    <contour>
      <point x="2737" y="515" type="line"/>
      <point x="2737" y="910" type="line" smooth="yes"/>
      <point x="2737" y="975"/>
      <point x="2516" y="1084"/>
      <point x="2396" y="1124" type="curve" smooth="yes"/>
      <point x="2394" y="1125"/>
      <point x="2393" y="1126"/>
      <point x="2393" y="1128" type="curve"/>
      <point x="2396" y="1143"/>
      <point x="2403" y="1165"/>
      <point x="2421" y="1177" type="curve" smooth="yes"/>
      <point x="2429" y="1183"/>
      <point x="2439" y="1186"/>
      <point x="2449" y="1186" type="curve" smooth="yes"/>
      <point x="2508" y="1186"/>
      <point x="2582" y="1093"/>
      <point x="2677" y="1093" type="curve" smooth="yes"/>
      <point x="2794" y="1093"/>
      <point x="2906" y="1215"/>
      <point x="2906" y="1380" type="curve" smooth="yes"/>
      <point x="2906" y="1732"/>
      <point x="2693" y="1777"/>
      <point x="2596" y="1777" type="curve" smooth="yes"/>
      <point x="2521" y="1777"/>
      <point x="2465" y="1749"/>
      <point x="2465" y="1691" type="curve" smooth="yes"/>
      <point x="2465" y="1631"/>
      <point x="2512" y="1589"/>
      <point x="2602" y="1560" type="curve" smooth="yes"/>
      <point x="2701" y="1529"/>
      <point x="2785" y="1494"/>
      <point x="2785" y="1330" type="curve" smooth="yes"/>
      <point x="2785" y="1313"/>
      <point x="2779" y="1303"/>
      <point x="2770" y="1303" type="curve" smooth="yes"/>
      <point x="2715" y="1303"/>
      <point x="2537" y="1440"/>
      <point x="2465" y="1440" type="curve" smooth="yes"/>
      <point x="2381" y="1440"/>
      <point x="2278" y="1165"/>
      <point x="2253" y="1061" type="curve"/>
      <point x="2253" y="1055"/>
      <point x="2255" y="1050"/>
      <point x="2260" y="1049" type="curve" smooth="yes"/>
      <point x="2365" y="1037"/>
      <point x="2437" y="963"/>
      <point x="2437" y="919" type="curve" smooth="yes"/>
      <point x="2437" y="519" type="line"/>
    </contour>
  </outline>
</glyph>
<glyph name="uni17C2" format="2">
  <advance width="750"/>
  <unicode hex="17C2"/>
  <outline>
    <contour>
      <point x="375" y="1912" type="curve" smooth="yes"/>
      <point x="375" y="1987"/>
      <point x="292" y="2021"/>
      <point x="236" y="2021" type="curve" smooth="yes"/>
      <point x="97" y="2021"/>
      <point x="14" y="1939"/>
      <point x="14" y="1864" type="curve" smooth="yes"/>
      <point x="14" y="1744"/>
      <point x="120" y="1590"/>
      <point x="360" y="1590" type="curve" smooth="yes"/>
      <point x="619" y="1590"/>
      <point x="787" y="1717"/>
      <point x="787" y="1950" type="curve" smooth="yes"/>
      <point x="787" y="2006"/>
      <point x="769" y="2059"/>
      <point x="732" y="2107" type="curve" smooth="yes"/>
      <point x="694" y="2156"/>
      <point x="634" y="2205"/>
      <point x="525" y="2205" type="curve" smooth="yes"/>
      <point x="472" y="2205"/>
      <point x="435" y="2164"/>
      <point x="435" y="2130" type="curve" smooth="yes"/>
      <point x="435" y="2077"/>
      <point x="454" y="2047"/>
      <point x="525" y="2006" type="curve" smooth="yes"/>
      <point x="551" y="1991"/>
      <point x="562" y="1965"/>
      <point x="562" y="1927" type="curve" smooth="yes"/>
      <point x="562" y="1879"/>
      <point x="547" y="1841"/>
      <point x="514" y="1800" type="curve"/>
      <point x="472" y="1755"/>
      <point x="424" y="1721"/>
      <point x="360" y="1721" type="curve" smooth="yes"/>
      <point x="311" y="1721"/>
      <point x="270" y="1759"/>
      <point x="266" y="1804" type="curve"/>
      <point x="326" y="1815"/>
      <point x="375" y="1856"/>
    </contour>
    <contour>
      <point x="262" y="919" type="curve"/>
      <point x="262" y="108" type="line"/>
      <point x="292" y="32"/>
      <point x="400" y="0"/>
      <point x="515" y="0" type="curve"/>
      <point x="681" y="31"/>
      <point x="789" y="161"/>
      <point x="789" y="290" type="curve" smooth="yes"/>
      <point x="789" y="414"/>
      <point x="692" y="532"/>
      <point x="562" y="555" type="curve"/>
      <point x="562" y="930" type="line" smooth="yes"/>
      <point x="562" y="995"/>
      <point x="341" y="1094"/>
      <point x="221" y="1134" type="curve"/>
      <point x="219" y="1135"/>
      <point x="218" y="1136"/>
      <point x="218" y="1138" type="curve"/>
      <point x="221" y="1153"/>
      <point x="228" y="1165"/>
      <point x="246" y="1177" type="curve"/>
      <point x="254" y="1183"/>
      <point x="264" y="1186"/>
      <point x="274" y="1186" type="curve" smooth="yes"/>
      <point x="363" y="1186"/>
      <point x="427" y="1105"/>
      <point x="532" y="1105" type="curve" smooth="yes"/>
      <point x="608" y="1105"/>
      <point x="660" y="1260"/>
      <point x="683" y="1346" type="curve"/>
      <point x="660" y="1336"/>
      <point x="636" y="1334"/>
      <point x="613" y="1334" type="curve" smooth="yes"/>
      <point x="558" y="1334"/>
      <point x="362" y="1440"/>
      <point x="290" y="1440" type="curve" smooth="yes"/>
      <point x="206" y="1440"/>
      <point x="103" y="1165"/>
      <point x="78" y="1061" type="curve"/>
      <point x="78" y="1055"/>
      <point x="80" y="1050"/>
      <point x="85" y="1049" type="curve"/>
      <point x="190" y="1037"/>
      <point x="262" y="963"/>
    </contour>
    <contour>
      <point x="667" y="290" type="curve" smooth="yes"/>
      <point x="667" y="219"/>
      <point x="613" y="179"/>
      <point x="562" y="157" type="curve"/>
      <point x="562" y="458" type="line"/>
      <point x="628" y="439"/>
      <point x="667" y="363"/>
    </contour>
  </outline>
</glyph>
<glyph name="uni17C4" format="2">
  <advance width="2925"/>
  <unicode hex="17C4"/>
  <anchor x="2737" y="0" name="L"/>
  <anchor x="2737" y="1440" name="U"/>
  <outline>
    <contour>
      <point x="1425" y="75" type="curve" smooth="yes"/>
      <point x="1425" y="11"/>
      <point x="1474" y="-38"/>
      <point x="1537" y="-38" type="curve" smooth="yes"/>
      <point x="1597" y="-38"/>
      <point x="1650" y="11"/>
      <point x="1650" y="75" type="curve" smooth="yes"/>
      <point x="1650" y="135"/>
      <point x="1597" y="187"/>
      <point x="1537" y="187" type="curve" smooth="yes"/>
      <point x="1474" y="187"/>
      <point x="1425" y="135"/>
    </contour>
    <contour>
      <point x="975" y="675" type="curve" smooth="yes"/>
      <point x="975" y="611"/>
      <point x="1024" y="562"/>
      <point x="1087" y="562" type="curve" smooth="yes"/>
      <point x="1147" y="562"/>
      <point x="1200" y="611"/>
      <point x="1200" y="675" type="curve" smooth="yes"/>
      <point x="1200" y="735"/>
      <point x="1147" y="787"/>
      <point x="1087" y="787" type="curve" smooth="yes"/>
      <point x="1024" y="787"/>
      <point x="975" y="735"/>
    </contour>
    <contour>
      <point x="1875" y="675" type="curve" smooth="yes"/>
      <point x="1875" y="611"/>
      <point x="1924" y="562"/>
      <point x="1987" y="562" type="curve" smooth="yes"/>
      <point x="2047" y="562"/>
      <point x="2100" y="611"/>
      <point x="2100" y="675" type="curve" smooth="yes"/>
      <point x="2100" y="735"/>
      <point x="2047" y="787"/>
      <point x="1987" y="787" type="curve" smooth="yes"/>
      <point x="1924" y="787"/>
      <point x="1875" y="735"/>
    </contour>
    <contour>
      <point x="1425" y="1275" type="curve" smooth="yes"/>
      <point x="1425" y="1211"/>
      <point x="1474" y="1162"/>
      <point x="1537" y="1162" type="curve" smooth="yes"/>
      <point x="1597" y="1162"/>
      <point x="1650" y="1211"/>
      <point x="1650" y="1275" type="curve" smooth="yes"/>
      <point x="1650" y="1335"/>
      <point x="1597" y="1387"/>
      <point x="1537" y="1387" type="curve" smooth="yes"/>
      <point x="1474" y="1387"/>
      <point x="1425" y="1335"/>
    </contour>
    <contour>
      <point x="1830" y="956" type="curve" smooth="yes"/>
      <point x="1830" y="892"/>
      <point x="1879" y="844"/>
      <point x="1942" y="844" type="curve" smooth="yes"/>
      <point x="2002" y="844"/>
      <point x="2055" y="892"/>
      <point x="2055" y="956" type="curve" smooth="yes"/>
      <point x="2055" y="1016"/>
      <point x="2002" y="1069"/>
      <point x="1942" y="1069" type="curve" smooth="yes"/>
      <point x="1879" y="1069"/>
      <point x="1830" y="1016"/>
    </contour>
    <contour>
      <point x="1691" y="1204" type="curve" smooth="yes"/>
      <point x="1691" y="1140"/>
      <point x="1744" y="1091"/>
      <point x="1804" y="1091" type="curve" smooth="yes"/>
      <point x="1867" y="1091"/>
      <point x="1916" y="1140"/>
      <point x="1916" y="1204" type="curve" smooth="yes"/>
      <point x="1916" y="1264"/>
      <point x="1867" y="1316"/>
      <point x="1804" y="1316" type="curve" smooth="yes"/>
      <point x="1744" y="1316"/>
      <point x="1691" y="1264"/>
    </contour>
    <contour>
      <point x="1699" y="146" type="curve" smooth="yes"/>
      <point x="1699" y="82"/>
      <point x="1747" y="34"/>
      <point x="1811" y="34" type="curve" smooth="yes"/>
      <point x="1871" y="34"/>
      <point x="1924" y="82"/>
      <point x="1924" y="146" type="curve" smooth="yes"/>
      <point x="1924" y="206"/>
      <point x="1871" y="259"/>
      <point x="1811" y="259" type="curve" smooth="yes"/>
      <point x="1747" y="259"/>
      <point x="1699" y="206"/>
    </contour>
    <contour>
      <point x="1830" y="394" type="curve" smooth="yes"/>
      <point x="1830" y="330"/>
      <point x="1882" y="281"/>
      <point x="1942" y="281" type="curve" smooth="yes"/>
      <point x="2006" y="281"/>
      <point x="2055" y="330"/>
      <point x="2055" y="394" type="curve" smooth="yes"/>
      <point x="2055" y="454"/>
      <point x="2006" y="506"/>
      <point x="1942" y="506" type="curve" smooth="yes"/>
      <point x="1882" y="506"/>
      <point x="1830" y="454"/>
    </contour>
    <contour>
      <point x="1252" y="394" type="curve" smooth="yes"/>
      <point x="1252" y="457"/>
      <point x="1204" y="506"/>
      <point x="1140" y="506" type="curve" smooth="yes"/>
      <point x="1080" y="506"/>
      <point x="1027" y="457"/>
      <point x="1027" y="394" type="curve" smooth="yes"/>
      <point x="1027" y="334"/>
      <point x="1080" y="281"/>
      <point x="1140" y="281" type="curve" smooth="yes"/>
      <point x="1204" y="281"/>
      <point x="1252" y="334"/>
    </contour>
    <contour>
      <point x="1384" y="146" type="curve" smooth="yes"/>
      <point x="1384" y="210"/>
      <point x="1331" y="259"/>
      <point x="1271" y="259" type="curve" smooth="yes"/>
      <point x="1207" y="259"/>
      <point x="1159" y="210"/>
      <point x="1159" y="146" type="curve" smooth="yes"/>
      <point x="1159" y="86"/>
      <point x="1207" y="34"/>
      <point x="1271" y="34" type="curve" smooth="yes"/>
      <point x="1331" y="34"/>
      <point x="1384" y="86"/>
    </contour>
    <contour>
      <point x="1384" y="1204" type="curve" smooth="yes"/>
      <point x="1384" y="1267"/>
      <point x="1335" y="1316"/>
      <point x="1271" y="1316" type="curve" smooth="yes"/>
      <point x="1211" y="1316"/>
      <point x="1159" y="1267"/>
      <point x="1159" y="1204" type="curve" smooth="yes"/>
      <point x="1159" y="1144"/>
      <point x="1211" y="1091"/>
      <point x="1271" y="1091" type="curve" smooth="yes"/>
      <point x="1335" y="1091"/>
      <point x="1384" y="1144"/>
    </contour>
    <contour>
      <point x="1252" y="956" type="curve" smooth="yes"/>
      <point x="1252" y="1020"/>
      <point x="1200" y="1069"/>
      <point x="1140" y="1069" type="curve" smooth="yes"/>
      <point x="1076" y="1069"/>
      <point x="1027" y="1020"/>
      <point x="1027" y="956" type="curve" smooth="yes"/>
      <point x="1027" y="896"/>
      <point x="1076" y="844"/>
      <point x="1140" y="844" type="curve" smooth="yes"/>
      <point x="1200" y="844"/>
      <point x="1252" y="896"/>
    </contour>
    <contour>
      <point x="262" y="919" type="curve"/>
      <point x="262" y="108" type="line"/>
      <point x="292" y="32"/>
      <point x="400" y="0"/>
      <point x="515" y="0" type="curve"/>
      <point x="681" y="31"/>
      <point x="789" y="161"/>
      <point x="789" y="290" type="curve" smooth="yes"/>
      <point x="789" y="414"/>
      <point x="692" y="532"/>
      <point x="562" y="555" type="curve"/>
      <point x="562" y="930" type="line" smooth="yes"/>
      <point x="562" y="995"/>
      <point x="341" y="1094"/>
      <point x="221" y="1134" type="curve" smooth="yes"/>
      <point x="219" y="1135"/>
      <point x="218" y="1136"/>
      <point x="218" y="1138" type="curve"/>
      <point x="221" y="1153"/>
      <point x="228" y="1165"/>
      <point x="246" y="1177" type="curve" smooth="yes"/>
      <point x="254" y="1183"/>
      <point x="264" y="1186"/>
      <point x="274" y="1186" type="curve" smooth="yes"/>
      <point x="363" y="1186"/>
      <point x="427" y="1105"/>
      <point x="532" y="1105" type="curve" smooth="yes"/>
      <point x="608" y="1105"/>
      <point x="660" y="1260"/>
      <point x="683" y="1346" type="curve"/>
      <point x="660" y="1336"/>
      <point x="636" y="1334"/>
      <point x="613" y="1334" type="curve" smooth="yes"/>
      <point x="558" y="1334"/>
      <point x="362" y="1440"/>
      <point x="290" y="1440" type="curve" smooth="yes"/>
      <point x="206" y="1440"/>
      <point x="103" y="1165"/>
      <point x="78" y="1061" type="curve"/>
      <point x="78" y="1055"/>
      <point x="80" y="1050"/>
      <point x="85" y="1049" type="curve" smooth="yes"/>
      <point x="190" y="1037"/>
      <point x="262" y="963"/>
    </contour>
    <contour>
      <point x="667" y="290" type="curve" smooth="yes"/>
      <point x="667" y="219"/>
      <point x="613" y="179"/>
      <point x="562" y="157" type="curve"/>
      <point x="562" y="458" type="line"/>
      <point x="628" y="439"/>
      <point x="667" y="363"/>
    </contour>
    <contour>
      <point x="2007" y="1139" type="line"/>
      <point x="2048" y="1167"/>
      <point x="2116" y="1192"/>
      <point x="2163" y="1192" type="curve" smooth="yes"/>
      <point x="2212" y="1192"/>
      <point x="2327" y="1123"/>
      <point x="2398" y="1072" type="curve" smooth="yes"/>
      <point x="2415" y="1060"/>
      <point x="2437" y="1039"/>
      <point x="2437" y="1014" type="curve" smooth="yes"/>
      <point x="2437" y="0" type="line"/>
      <point x="2737" y="0" type="line"/>
      <point x="2737" y="1063" type="line" smooth="yes"/>
      <point x="2737" y="1124"/>
      <point x="2702" y="1166"/>
      <point x="2640" y="1212" type="curve" smooth="yes"/>
      <point x="2582" y="1255"/>
      <point x="2291" y="1440"/>
      <point x="2219" y="1440" type="curve" smooth="yes"/>
      <point x="2112" y="1440"/>
      <point x="1982" y="1351"/>
      <point x="1902" y="1293" type="curve"/>
    </contour>
  </outline>
</glyph>
<glyph name="uni17CA" format="2">
  <unicode hex="17CA"/>
  <anchor x="-188" y="1841" name="U"/>
  <anchor x="-188" y="1440" name="_U"/>
  <anchor x="-713" y="1440" name="_UM"/>
  <outline>
    <contour>
      <point x="-746" y="1594" type="curve" smooth="yes"/>
      <point x="-709" y="1594"/>
      <point x="-678" y="1648"/>
      <point x="-659" y="1672" type="curve" smooth="yes"/>
      <point x="-635" y="1701"/>
      <point x="-606" y="1736"/>
      <point x="-575" y="1736" type="curve" smooth="yes"/>
      <point x="-506" y="1736"/>
      <point x="-333" y="1594"/>
      <point x="-248" y="1594" type="curve" smooth="yes"/>
      <point x="-167" y="1594"/>
      <point x="-98" y="1729"/>
      <point x="-67" y="1815" type="curve"/>
      <point x="-90" y="1805"/>
      <point x="-114" y="1803"/>
      <point x="-137" y="1803" type="curve" smooth="yes"/>
      <point x="-202" y="1803"/>
      <point x="-447" y="1970"/>
      <point x="-519" y="1970" type="curve" smooth="yes"/>
      <point x="-543" y="1970"/>
      <point x="-580" y="1949"/>
      <point x="-614" y="1917" type="curve" smooth="yes"/>
      <point x="-641" y="1891"/>
      <point x="-671" y="1861"/>
      <point x="-699" y="1828" type="curve"/>
      <point x="-778" y="1853"/>
      <point x="-973" y="1970"/>
      <point x="-1037" y="1970" type="curve" smooth="yes"/>
      <point x="-1201" y="1970"/>
      <point x="-1351" y="1738"/>
      <point x="-1396" y="1634" type="curve" smooth="yes"/>
      <point x="-1399" y="1627"/>
      <point x="-1400" y="1605"/>
      <point x="-1400" y="1599" type="curve" smooth="yes"/>
      <point x="-1400" y="1528"/>
      <point x="-1322" y="1482"/>
      <point x="-1249" y="1470" type="curve"/>
      <point x="-1068" y="1564" type="line"/>
      <point x="-1151" y="1580"/>
      <point x="-1215" y="1597"/>
      <point x="-1215" y="1654" type="curve" smooth="yes"/>
      <point x="-1215" y="1676"/>
      <point x="-1154" y="1736"/>
      <point x="-1103" y="1736" type="curve" smooth="yes"/>
      <point x="-1034" y="1736"/>
      <point x="-831" y="1594"/>
    </contour>
  </outline>
</glyph>
<glyph name="uni19EC" format="2">
  <advance width="3200"/>
  <unicode hex="19EC"/>
  <outline>
    <contour>
      <point x="1937" y="1213" type="line"/>
      <point x="1966" y="1126"/>
      <point x="2092" y="1104"/>
      <point x="2177" y="1104" type="curve"/>
      <point x="2376" y="1141"/>
      <point x="2462" y="1306"/>
      <point x="2462" y="1396" type="curve"/>
      <point x="2462" y="1506"/>
      <point x="2345" y="1558"/>
      <point x="2237" y="1574" type="curve"/>
      <point x="2237" y="1762" type="line"/>
      <point x="2237" y="1797"/>
      <point x="2245" y="1867"/>
      <point x="2264" y="1867" type="curve" smooth="yes"/>
      <point x="2297" y="1867"/>
      <point x="2451" y="1709"/>
      <point x="2462" y="1709" type="curve" smooth="yes"/>
      <point x="2474" y="1709"/>
      <point x="2627" y="1871"/>
      <point x="2661" y="1871" type="curve" smooth="yes"/>
      <point x="2680" y="1871"/>
      <point x="2687" y="1796"/>
      <point x="2687" y="1762" type="curve" smooth="yes"/>
      <point x="2687" y="851" type="line" smooth="yes"/>
      <point x="2687" y="802"/>
      <point x="2365" y="768"/>
      <point x="2256" y="768" type="curve" smooth="yes"/>
      <point x="2144" y="768"/>
      <point x="1825" y="802"/>
      <point x="1825" y="851" type="curve" smooth="yes"/>
      <point x="1825" y="2043" type="line" smooth="yes"/>
      <point x="1825" y="2291"/>
      <point x="1686" y="2407"/>
      <point x="1465" y="2407" type="curve" smooth="yes"/>
      <point x="1356" y="2407"/>
      <point x="1278" y="2321"/>
      <point x="1262" y="2257" type="curve"/>
      <point x="1301" y="2280"/>
      <point x="1341" y="2302"/>
      <point x="1394" y="2302" type="curve"/>
      <point x="1484" y="2302"/>
      <point x="1525" y="2187"/>
      <point x="1525" y="2024" type="curve" smooth="yes"/>
      <point x="1525" y="813" type="line" smooth="yes"/>
      <point x="1525" y="708"/>
      <point x="1989" y="637"/>
      <point x="2256" y="637" type="curve" smooth="yes"/>
      <point x="2526" y="637"/>
      <point x="2987" y="708"/>
      <point x="2987" y="813" type="curve" smooth="yes"/>
      <point x="2987" y="1807" type="line" smooth="yes"/>
      <point x="2987" y="1904"/>
      <point x="2830" y="2077"/>
      <point x="2706" y="2077" type="curve" smooth="yes"/>
      <point x="2654" y="2077"/>
      <point x="2605" y="2043"/>
      <point x="2552" y="2002" type="curve"/>
      <point x="2519" y="1975"/>
      <point x="2485" y="1946"/>
      <point x="2462" y="1923" type="curve"/>
      <point x="2439" y="1946"/>
      <point x="2407" y="1975"/>
      <point x="2372" y="2002" type="curve"/>
      <point x="2320" y="2043"/>
      <point x="2267" y="2077"/>
      <point x="2219" y="2077" type="curve" smooth="yes"/>
      <point x="2095" y="2077"/>
      <point x="1937" y="1904"/>
      <point x="1937" y="1807" type="curve" smooth="yes"/>
    </contour>
    <contour>
      <point x="582" y="1278" type="curve" smooth="yes"/>
      <point x="762" y="1278"/>
      <point x="900" y="1417"/>
      <point x="900" y="1529" type="curve"/>
      <point x="900" y="1664"/>
      <point x="807" y="1721"/>
      <point x="706" y="1721" type="curve" smooth="yes"/>
      <point x="586" y="1721"/>
      <point x="550" y="1642"/>
      <point x="550" y="1589" type="curve" smooth="yes"/>
      <point x="550" y="1522"/>
      <point x="579" y="1496"/>
      <point x="635" y="1477" type="curve"/>
      <point x="635" y="1446"/>
      <point x="609" y="1428"/>
      <point x="586" y="1428" type="curve"/>
      <point x="519" y="1428"/>
      <point x="462" y="1522"/>
      <point x="462" y="1642" type="curve" smooth="yes"/>
      <point x="462" y="1845"/>
      <point x="574" y="1927"/>
      <point x="706" y="1927" type="curve" smooth="yes"/>
      <point x="860" y="1927"/>
      <point x="987" y="1813"/>
      <point x="987" y="1417" type="curve" smooth="yes"/>
      <point x="987" y="1028"/>
      <point x="709" y="731" name="hr01"/>
      <point x="417" y="731" type="curve" smooth="yes"/>
      <point x="394" y="731" type="line" smooth="yes"/>
      <point x="366" y="731"/>
      <point x="315" y="734"/>
      <point x="279" y="746" type="curve"/>
      <point x="330" y="682"/>
      <point x="467" y="637"/>
      <point x="571" y="637" type="curve"/>
      <point x="875" y="637"/>
      <point x="1287" y="933"/>
      <point x="1287" y="1398" type="curve" smooth="yes"/>
      <point x="1287" y="1886"/>
      <point x="1039" y="2077"/>
      <point x="706" y="2077" type="curve" smooth="yes"/>
      <point x="369" y="2077"/>
      <point x="162" y="1882"/>
      <point x="162" y="1661" type="curve" smooth="yes"/>
      <point x="162" y="1432"/>
      <point x="321" y="1278"/>
    </contour>
    <contour>
      <point x="1626" y="-1200" type="line"/>
      <point x="2001" y="-1200" type="line"/>
      <point x="2001" y="240" type="line"/>
      <point x="1626" y="240" type="line"/>
      <point x="1626" y="155"/>
      <point x="1540" y="-71"/>
      <point x="1439" y="-71" type="curve"/>
      <point x="1387" y="-71"/>
      <point x="1367" y="-26"/>
      <point x="1367" y="0" type="curve"/>
      <point x="1442" y="21"/>
      <point x="1510" y="71"/>
      <point x="1510" y="150" type="curve"/>
      <point x="1510" y="225"/>
      <point x="1443" y="296"/>
      <point x="1307" y="296" type="curve" smooth="yes"/>
      <point x="1176" y="296"/>
      <point x="1045" y="214"/>
      <point x="1045" y="37" type="curve" smooth="yes"/>
      <point x="1045" y="-95"/>
      <point x="1179" y="-229"/>
      <point x="1379" y="-229" type="curve" smooth="yes"/>
      <point x="1466" y="-229"/>
      <point x="1558" y="-191"/>
      <point x="1626" y="-131" type="curve"/>
    </contour>
    <contour>
      <point x="2357" y="1396" type="curve" smooth="yes"/>
      <point x="2357" y="1345"/>
      <point x="2289" y="1270"/>
      <point x="2237" y="1254" type="curve"/>
      <point x="2237" y="1488" type="line" name="hr02"/>
      <point x="2285" y="1485"/>
      <point x="2357" y="1452"/>
    </contour>
  </outline>
  <guideline angle="90" x="1462" y="0"/>
</glyph>
<glyph name="uni19ED" format="2">
  <advance width="3200"/>
  <unicode hex="19ED"/>
  <outline>
    <contour>
      <point x="1500" y="743" type="line"/>
      <point x="1529" y="656"/>
      <point x="1655" y="634"/>
      <point x="1740" y="634" type="curve"/>
      <point x="1939" y="671"/>
      <point x="2025" y="836"/>
      <point x="2025" y="926" type="curve"/>
      <point x="2025" y="1036"/>
      <point x="1908" y="1088"/>
      <point x="1800" y="1104" type="curve"/>
      <point x="1800" y="1871" type="line"/>
      <point x="1800" y="1916"/>
      <point x="1890" y="1946"/>
      <point x="1950" y="1946" type="curve" smooth="yes"/>
      <point x="2010" y="1946"/>
      <point x="2100" y="1916"/>
      <point x="2100" y="1871" type="curve" smooth="yes"/>
      <point x="2100" y="637" type="line"/>
      <point x="2400" y="637" type="line"/>
      <point x="2400" y="1871" type="line"/>
      <point x="2400" y="1916"/>
      <point x="2490" y="1946"/>
      <point x="2550" y="1946" type="curve" smooth="yes"/>
      <point x="2610" y="1946"/>
      <point x="2700" y="1916"/>
      <point x="2700" y="1871" type="curve" smooth="yes"/>
      <point x="2700" y="637" type="line"/>
      <point x="3000" y="637" type="line"/>
      <point x="3000" y="1889" type="line"/>
      <point x="3000" y="1983"/>
      <point x="2755" y="2077"/>
      <point x="2550" y="2077" type="curve" smooth="yes"/>
      <point x="2437" y="2077"/>
      <point x="2330" y="2059"/>
      <point x="2250" y="2024" type="curve"/>
      <point x="2170" y="2059"/>
      <point x="2063" y="2077"/>
      <point x="1950" y="2077" type="curve"/>
      <point x="1745" y="2077"/>
      <point x="1500" y="1983"/>
      <point x="1500" y="1889" type="curve" smooth="yes"/>
    </contour>
    <contour>
      <point x="572" y="1278" type="curve" smooth="yes"/>
      <point x="752" y="1278"/>
      <point x="890" y="1417"/>
      <point x="890" y="1529" type="curve"/>
      <point x="890" y="1664"/>
      <point x="797" y="1721"/>
      <point x="696" y="1721" type="curve" smooth="yes"/>
      <point x="576" y="1721"/>
      <point x="540" y="1642"/>
      <point x="540" y="1589" type="curve" smooth="yes"/>
      <point x="540" y="1522"/>
      <point x="569" y="1496"/>
      <point x="625" y="1477" type="curve"/>
      <point x="625" y="1446"/>
      <point x="599" y="1428"/>
      <point x="576" y="1428" type="curve"/>
      <point x="509" y="1428"/>
      <point x="452" y="1522"/>
      <point x="452" y="1642" type="curve" smooth="yes"/>
      <point x="452" y="1845"/>
      <point x="564" y="1927" name="hr01"/>
      <point x="696" y="1927" type="curve" smooth="yes"/>
      <point x="850" y="1927"/>
      <point x="977" y="1813"/>
      <point x="977" y="1417" type="curve" smooth="yes"/>
      <point x="977" y="1028"/>
      <point x="699" y="731"/>
      <point x="407" y="731" type="curve" smooth="yes"/>
      <point x="384" y="731" type="line" smooth="yes"/>
      <point x="356" y="731"/>
      <point x="305" y="734"/>
      <point x="269" y="746" type="curve"/>
      <point x="320" y="682"/>
      <point x="457" y="637"/>
      <point x="561" y="637" type="curve"/>
      <point x="865" y="637"/>
      <point x="1277" y="933"/>
      <point x="1277" y="1398" type="curve" smooth="yes"/>
      <point x="1277" y="1886"/>
      <point x="1029" y="2077"/>
      <point x="696" y="2077" type="curve" smooth="yes"/>
      <point x="359" y="2077"/>
      <point x="152" y="1882"/>
      <point x="152" y="1661" type="curve" smooth="yes"/>
      <point x="152" y="1432"/>
      <point x="311" y="1278"/>
    </contour>
    <contour>
      <point x="1656" y="-1200" type="line"/>
      <point x="2031" y="-1200" type="line"/>
      <point x="2031" y="240" type="line"/>
      <point x="1656" y="240" type="line"/>
      <point x="1656" y="155"/>
      <point x="1570" y="-71"/>
      <point x="1469" y="-71" type="curve"/>
      <point x="1417" y="-71"/>
      <point x="1397" y="-26"/>
      <point x="1397" y="0" type="curve"/>
      <point x="1472" y="21"/>
      <point x="1540" y="71"/>
      <point x="1540" y="150" type="curve"/>
      <point x="1540" y="225"/>
      <point x="1473" y="296"/>
      <point x="1337" y="296" type="curve" smooth="yes"/>
      <point x="1206" y="296"/>
      <point x="1075" y="214"/>
      <point x="1075" y="37" type="curve" smooth="yes"/>
      <point x="1075" y="-95"/>
      <point x="1209" y="-229"/>
      <point x="1409" y="-229" type="curve" smooth="yes"/>
      <point x="1496" y="-229"/>
      <point x="1588" y="-191"/>
      <point x="1656" y="-131" type="curve"/>
    </contour>
    <contour>
      <point x="1920" y="926" type="curve" smooth="yes"/>
      <point x="1920" y="875"/>
      <point x="1852" y="800"/>
      <point x="1800" y="784" type="curve"/>
      <point x="1800" y="1018" type="line" name="hr02"/>
      <point x="1848" y="1015"/>
      <point x="1920" y="982"/>
    </contour>
  </outline>
  <guideline angle="90" x="1500" y="0"/>
</glyph>
<glyph name="uni19F1" format="2">
  <advance width="1390"/>
  <unicode hex="19F1"/>
  <outline>
    <contour>
      <point x="552" y="-559" type="curve" smooth="yes"/>
      <point x="732" y="-559"/>
      <point x="870" y="-420"/>
      <point x="870" y="-308" type="curve"/>
      <point x="870" y="-173"/>
      <point x="777" y="-116"/>
      <point x="676" y="-116" type="curve" smooth="yes"/>
      <point x="556" y="-116"/>
      <point x="520" y="-195"/>
      <point x="520" y="-248" type="curve" smooth="yes"/>
      <point x="520" y="-315"/>
      <point x="549" y="-341"/>
      <point x="605" y="-360" type="curve"/>
      <point x="605" y="-391"/>
      <point x="579" y="-409"/>
      <point x="556" y="-409" type="curve"/>
      <point x="489" y="-409"/>
      <point x="432" y="-315"/>
      <point x="432" y="-195" type="curve" smooth="yes"/>
      <point x="432" y="8"/>
      <point x="544" y="90"/>
      <point x="676" y="90" type="curve" smooth="yes"/>
      <point x="830" y="90"/>
      <point x="957" y="-24"/>
      <point x="957" y="-420" type="curve" smooth="yes"/>
      <point x="957" y="-809"/>
      <point x="679" y="-1106"/>
      <point x="387" y="-1106" type="curve" smooth="yes"/>
      <point x="364" y="-1106" type="line" smooth="yes"/>
      <point x="336" y="-1106"/>
      <point x="285" y="-1103"/>
      <point x="249" y="-1091" type="curve"/>
      <point x="300" y="-1155"/>
      <point x="437" y="-1200"/>
      <point x="541" y="-1200" type="curve"/>
      <point x="845" y="-1200"/>
      <point x="1257" y="-904"/>
      <point x="1257" y="-439" type="curve" smooth="yes"/>
      <point x="1257" y="49"/>
      <point x="1009" y="240"/>
      <point x="676" y="240" type="curve" smooth="yes"/>
      <point x="339" y="240"/>
      <point x="132" y="45"/>
      <point x="132" y="-176" type="curve" smooth="yes"/>
      <point x="132" y="-405"/>
      <point x="291" y="-559"/>
    </contour>
    <contour>
      <point x="736" y="637" type="line"/>
      <point x="1111" y="637" type="line" name="hr01"/>
      <point x="1111" y="2077" type="line"/>
      <point x="736" y="2077" type="line"/>
      <point x="736" y="1992"/>
      <point x="650" y="1766"/>
      <point x="549" y="1766" type="curve"/>
      <point x="497" y="1766"/>
      <point x="477" y="1811"/>
      <point x="477" y="1837" type="curve"/>
      <point x="552" y="1858"/>
      <point x="620" y="1908"/>
      <point x="620" y="1987" type="curve"/>
      <point x="620" y="2062"/>
      <point x="553" y="2133"/>
      <point x="417" y="2133" type="curve" smooth="yes"/>
      <point x="286" y="2133"/>
      <point x="155" y="2051"/>
      <point x="155" y="1874" type="curve" smooth="yes"/>
      <point x="155" y="1742"/>
      <point x="289" y="1608"/>
      <point x="489" y="1608" type="curve" smooth="yes"/>
      <point x="576" y="1608"/>
      <point x="668" y="1646"/>
      <point x="736" y="1706" type="curve"/>
    </contour>
  </outline>
</glyph>
<glyph name="uni19F5" format="2">
  <advance width="1390"/>
  <unicode hex="19F5"/>
  <outline>
    <contour>
      <point x="170" y="-664" type="curve" smooth="yes"/>
      <point x="170" y="-1061"/>
      <point x="335" y="-1200"/>
      <point x="485" y="-1200" type="curve"/>
      <point x="527" y="-1200"/>
      <point x="604" y="-1193"/>
      <point x="647" y="-1185" type="curve"/>
      <point x="684" y="-1177"/>
      <point x="725" y="-1170"/>
      <point x="748" y="-1170" type="curve"/>
      <point x="789" y="-1170"/>
      <point x="838" y="-1177"/>
      <point x="890" y="-1185" type="curve" smooth="yes"/>
      <point x="939" y="-1192"/>
      <point x="988" y="-1200"/>
      <point x="1040" y="-1200" type="curve" smooth="yes"/>
      <point x="1144" y="-1200"/>
      <point x="1172" y="-1160"/>
      <point x="1172" y="-1140" type="curve" smooth="yes"/>
      <point x="1172" y="-1088"/>
      <point x="1112" y="-1024"/>
      <point x="1039" y="-957" type="curve" smooth="yes"/>
      <point x="992" y="-915"/>
      <point x="943" y="-870"/>
      <point x="932" y="-799" type="curve"/>
      <point x="965" y="-818"/>
      <point x="1010" y="-829"/>
      <point x="1063" y="-829" type="curve"/>
      <point x="1159" y="-829"/>
      <point x="1239" y="-788"/>
      <point x="1239" y="-679" type="curve" smooth="yes"/>
      <point x="1239" y="-574"/>
      <point x="1139" y="-473"/>
      <point x="984" y="-473" type="curve" smooth="yes"/>
      <point x="774" y="-473"/>
      <point x="658" y="-601"/>
      <point x="658" y="-758" type="curve" smooth="yes"/>
      <point x="658" y="-845"/>
      <point x="717" y="-933"/>
      <point x="812" y="-1024" type="curve"/>
      <point x="781" y="-1024"/>
      <point x="752" y="-1020"/>
      <point x="733" y="-1020" type="curve"/>
      <point x="684" y="-1020"/>
      <point x="602" y="-1039"/>
      <point x="568" y="-1039" type="curve" smooth="yes"/>
      <point x="499" y="-1039"/>
      <point x="470" y="-864"/>
      <point x="470" y="-701" type="curve" smooth="yes"/>
      <point x="470" y="-454"/>
      <point x="603" y="-290"/>
      <point x="680" y="-199" type="curve"/>
      <point x="1022" y="-199"/>
      <point x="1190" y="-165"/>
      <point x="1190" y="41" type="curve"/>
      <point x="1190" y="72"/>
      <point x="1175" y="127"/>
      <point x="1160" y="180" type="curve" smooth="yes"/>
      <point x="1145" y="232"/>
      <point x="1130" y="284"/>
      <point x="1130" y="311" type="curve" smooth="yes"/>
      <point x="1130" y="394"/>
      <point x="1167" y="476"/>
      <point x="1247" y="476" type="curve"/>
      <point x="1199" y="532"/>
      <point x="1163" y="570"/>
      <point x="1048" y="570" type="curve"/>
      <point x="920" y="570"/>
      <point x="845" y="394"/>
      <point x="845" y="292" type="curve" smooth="yes"/>
      <point x="845" y="255"/>
      <point x="855" y="210"/>
      <point x="868" y="165" type="curve" smooth="yes"/>
      <point x="881" y="120"/>
      <point x="890" y="80"/>
      <point x="890" y="45" type="curve" smooth="yes"/>
      <point x="890" y="-12"/>
      <point x="833" y="-33"/>
      <point x="770" y="-41" type="curve"/>
      <point x="785" y="-14"/>
      <point x="789" y="7"/>
      <point x="789" y="34" type="curve"/>
      <point x="789" y="194"/>
      <point x="649" y="277"/>
      <point x="508" y="277" type="curve" smooth="yes"/>
      <point x="365" y="277"/>
      <point x="226" y="194"/>
      <point x="226" y="34" type="curve" smooth="yes"/>
      <point x="226" y="-69"/>
      <point x="283" y="-129"/>
      <point x="377" y="-180" type="curve"/>
      <point x="336" y="-229"/>
      <point x="170" y="-451"/>
    </contour>
    <contour>
      <point x="736" y="637" type="line"/>
      <point x="1111" y="637" type="line" name="hr01"/>
      <point x="1111" y="2077" type="line"/>
      <point x="736" y="2077" type="line"/>
      <point x="736" y="1992"/>
      <point x="650" y="1766"/>
      <point x="549" y="1766" type="curve"/>
      <point x="497" y="1766"/>
      <point x="477" y="1811"/>
      <point x="477" y="1837" type="curve"/>
      <point x="552" y="1858"/>
      <point x="620" y="1908"/>
      <point x="620" y="1987" type="curve"/>
      <point x="620" y="2062"/>
      <point x="553" y="2133"/>
      <point x="417" y="2133" type="curve" smooth="yes"/>
      <point x="286" y="2133"/>
      <point x="155" y="2051"/>
      <point x="155" y="1874" type="curve" smooth="yes"/>
      <point x="155" y="1742"/>
      <point x="289" y="1608"/>
      <point x="489" y="1608" type="curve" smooth="yes"/>
      <point x="576" y="1608"/>
      <point x="668" y="1646"/>
      <point x="736" y="1706" type="curve"/>
    </contour>
    <contour>
      <point x="450" y="38" type="curve" smooth="yes"/>
      <point x="450" y="78"/>
      <point x="473" y="108"/>
      <point x="508" y="108" type="curve"/>
      <point x="543" y="108"/>
      <point x="566" y="78"/>
      <point x="566" y="38" type="curve" smooth="yes"/>
      <point x="566" y="2"/>
      <point x="535" y="-30"/>
      <point x="508" y="-38" type="curve"/>
      <point x="482" y="-30"/>
      <point x="450" y="3"/>
    </contour>
  </outline>
</glyph>
<glyph name="uni19FE" format="2">
  <advance width="2660"/>
  <unicode hex="19FE"/>
  <outline>
    <contour>
      <point x="2353" y="-829" type="curve" smooth="yes"/>
      <point x="2449" y="-829"/>
      <point x="2529" y="-788"/>
      <point x="2529" y="-679" type="curve"/>
      <point x="2529" y="-574"/>
      <point x="2429" y="-473"/>
      <point x="2274" y="-473" type="curve" smooth="yes"/>
      <point x="2064" y="-473"/>
      <point x="1948" y="-601"/>
      <point x="1948" y="-758" type="curve" smooth="yes"/>
      <point x="1948" y="-845"/>
      <point x="2007" y="-933"/>
      <point x="2102" y="-1024" type="curve"/>
      <point x="2073" y="-1024"/>
      <point x="2022" y="-1020"/>
      <point x="2004" y="-1020" type="curve"/>
      <point x="1963" y="-1020"/>
      <point x="1900" y="-1039"/>
      <point x="1858" y="-1039" type="curve" smooth="yes"/>
      <point x="1789" y="-1039"/>
      <point x="1760" y="-904"/>
      <point x="1760" y="-780" type="curve" smooth="yes"/>
      <point x="1760" y="-565"/>
      <point x="2004" y="-309"/>
      <point x="2144" y="-189" type="curve" smooth="yes"/>
      <point x="2267" y="-82"/>
      <point x="2428" y="82"/>
      <point x="2428" y="251" type="curve" smooth="yes"/>
      <point x="2428" y="355"/>
      <point x="2368" y="480"/>
      <point x="2237" y="531" type="curve" smooth="yes"/>
      <point x="2202" y="544"/>
      <point x="2158" y="559"/>
      <point x="2102" y="559" type="curve" smooth="yes"/>
      <point x="2067" y="559"/>
      <point x="2046" y="555"/>
      <point x="2023" y="547" type="curve"/>
      <point x="2105" y="510"/>
      <point x="2132" y="385"/>
      <point x="2132" y="311" type="curve"/>
      <point x="2132" y="178"/>
      <point x="1948" y="20"/>
      <point x="1827" y="-89" type="curve" smooth="yes"/>
      <point x="1659" y="-241"/>
      <point x="1460" y="-491"/>
      <point x="1460" y="-709" type="curve" smooth="yes"/>
      <point x="1460" y="-1065"/>
      <point x="1625" y="-1200"/>
      <point x="1775" y="-1200" type="curve" smooth="yes"/>
      <point x="1817" y="-1200"/>
      <point x="1894" y="-1193"/>
      <point x="1937" y="-1185" type="curve"/>
      <point x="1974" y="-1177"/>
      <point x="2015" y="-1170" name="hr01"/>
      <point x="2038" y="-1170" type="curve"/>
      <point x="2079" y="-1170"/>
      <point x="2128" y="-1177"/>
      <point x="2180" y="-1186" type="curve" smooth="yes"/>
      <point x="2229" y="-1194"/>
      <point x="2278" y="-1200" name="hr02"/>
      <point x="2330" y="-1200" type="curve" smooth="yes"/>
      <point x="2434" y="-1200"/>
      <point x="2462" y="-1160"/>
      <point x="2462" y="-1140" type="curve" smooth="yes"/>
      <point x="2462" y="-1088"/>
      <point x="2402" y="-1024"/>
      <point x="2329" y="-957" type="curve" smooth="yes"/>
      <point x="2282" y="-915"/>
      <point x="2233" y="-870"/>
      <point x="2222" y="-799" type="curve"/>
      <point x="2255" y="-818"/>
      <point x="2300" y="-829"/>
    </contour>
    <contour>
      <point x="552" y="-559" type="curve" smooth="yes"/>
      <point x="732" y="-559" name="hr03"/>
      <point x="870" y="-420"/>
      <point x="870" y="-308" type="curve"/>
      <point x="870" y="-173"/>
      <point x="777" y="-116"/>
      <point x="676" y="-116" type="curve" smooth="yes"/>
      <point x="556" y="-116"/>
      <point x="520" y="-195"/>
      <point x="520" y="-248" type="curve" smooth="yes"/>
      <point x="520" y="-315"/>
      <point x="549" y="-341"/>
      <point x="605" y="-360" type="curve"/>
      <point x="605" y="-391"/>
      <point x="579" y="-409"/>
      <point x="556" y="-409" type="curve"/>
      <point x="489" y="-409"/>
      <point x="432" y="-315"/>
      <point x="432" y="-195" type="curve" smooth="yes"/>
      <point x="432" y="8"/>
      <point x="544" y="90"/>
      <point x="676" y="90" type="curve" smooth="yes"/>
      <point x="830" y="90"/>
      <point x="957" y="-24"/>
      <point x="957" y="-420" type="curve" smooth="yes"/>
      <point x="957" y="-809"/>
      <point x="679" y="-1106"/>
      <point x="387" y="-1106" type="curve" smooth="yes"/>
      <point x="364" y="-1106" type="line" smooth="yes"/>
      <point x="336" y="-1106"/>
      <point x="285" y="-1103"/>
      <point x="249" y="-1091" type="curve"/>
      <point x="300" y="-1155"/>
      <point x="437" y="-1200"/>
      <point x="541" y="-1200" type="curve"/>
      <point x="845" y="-1200"/>
      <point x="1257" y="-904"/>
      <point x="1257" y="-439" type="curve" smooth="yes"/>
      <point x="1257" y="49"/>
      <point x="1009" y="240"/>
      <point x="676" y="240" type="curve" smooth="yes"/>
      <point x="339" y="240"/>
      <point x="132" y="45"/>
      <point x="132" y="-176" type="curve" smooth="yes"/>
      <point x="132" y="-405"/>
      <point x="291" y="-559"/>
    </contour>
    <contour>
      <point x="1286" y="637" type="line"/>
      <point x="1661" y="637" type="line"/>
      <point x="1661" y="2077" type="line"/>
      <point x="1286" y="2077" type="line"/>
      <point x="1286" y="1992"/>
      <point x="1200" y="1766"/>
      <point x="1099" y="1766" type="curve"/>
      <point x="1047" y="1766"/>
      <point x="1027" y="1811"/>
      <point x="1027" y="1837" type="curve"/>
      <point x="1102" y="1858"/>
      <point x="1170" y="1908"/>
      <point x="1170" y="1987" type="curve"/>
      <point x="1170" y="2062"/>
      <point x="1103" y="2133"/>
      <point x="967" y="2133" type="curve" smooth="yes"/>
      <point x="836" y="2133"/>
      <point x="705" y="2051"/>
      <point x="705" y="1874" type="curve" smooth="yes"/>
      <point x="705" y="1742"/>
      <point x="839" y="1608"/>
      <point x="1039" y="1608" type="curve" smooth="yes"/>
      <point x="1126" y="1608"/>
      <point x="1218" y="1646"/>
      <point x="1286" y="1706" type="curve"/>
    </contour>
  </outline>
</glyph>
<glyph name="uni178017B6.space" format="2">
  <advance width="2250"/>
  <anchor x="1200" y="0" name="L"/>
  <anchor x="1875" y="0" name="L2"/>
  <anchor x="1200" y="1440" name="U"/>
  <anchor x="1875" y="1440" name="U2"/>
  <outline>
    <contour>
      <point x="1202" y="1142" type="line"/>
      <point x="1256" y="1173"/>
      <point x="1321" y="1192"/>
      <point x="1368" y="1192" type="curve" smooth="yes"/>
      <point x="1437" y="1192"/>
      <point x="1652" y="1085"/>
      <point x="1723" y="1039" type="curve" smooth="yes"/>
      <point x="1740" y="1028"/>
      <point x="1762" y="1009"/>
      <point x="1762" y="984" type="curve" smooth="yes"/>
      <point x="1762" y="0" type="line"/>
      <point x="2062" y="0" type="line"/>
      <point x="2062" y="1043" type="line" smooth="yes"/>
      <point x="2062" y="1104"/>
      <point x="2030" y="1149"/>
      <point x="1965" y="1192" type="curve" smooth="yes"/>
      <point x="1907" y="1230"/>
      <point x="1496" y="1440"/>
      <point x="1424" y="1440" type="curve" smooth="yes"/>
      <point x="1307" y="1440"/>
      <point x="1177" y="1384"/>
      <point x="1097" y="1326" type="curve"/>
    </contour>
  </outline>
</glyph>
<glyph name="uni178017C5.dash.right" format="2">
  <advance width="2250"/>
  <anchor x="1200" y="0" name="L"/>
  <anchor x="1200" y="1440" name="U"/>
  <outline>
    <contour>
      <point x="1162" y="500" type="line"/>
      <point x="1162" y="720" type="line"/>
      <point x="412" y="720" type="line"/>
      <point x="412" y="500" type="line"/>
    </contour>
    <contour>
      <point x="1202" y="1142" type="line"/>
      <point x="1256" y="1173"/>
      <point x="1321" y="1192"/>
      <point x="1368" y="1192" type="curve" smooth="yes"/>
      <point x="1437" y="1192"/>
      <point x="1652" y="1085"/>
      <point x="1723" y="1039" type="curve" smooth="yes"/>
      <point x="1740" y="1028"/>
      <point x="1762" y="1009"/>
      <point x="1762" y="984" type="curve" smooth="yes"/>
      <point x="1762" y="0" type="line"/>
      <point x="2062" y="0" type="line"/>
      <point x="2062" y="1043" type="line" smooth="yes"/>
      <point x="2062" y="1104"/>
      <point x="2030" y="1149"/>
      <point x="1965" y="1192" type="curve" smooth="yes"/>
      <point x="1907" y="1230"/>
      <point x="1496" y="1440"/>
      <point x="1424" y="1440" type="curve" smooth="yes"/>
      <point x="1307" y="1440"/>
      <point x="1177" y="1384"/>
      <point x="1097" y="1326" type="curve"/>
    </contour>
    <contour>
      <point x="1792" y="1792" type="curve"/>
      <point x="1792" y="1410" type="line" smooth="yes"/>
      <point x="1792" y="1352"/>
      <point x="1768" y="1307"/>
      <point x="1735" y="1261" type="curve"/>
      <point x="1958" y="1170" type="line"/>
      <point x="2021" y="1257"/>
      <point x="2062" y="1323"/>
      <point x="2062" y="1410" type="curve" smooth="yes"/>
      <point x="2062" y="1788" type="line" smooth="yes"/>
      <point x="2062" y="1858"/>
      <point x="1892" y="1922"/>
      <point x="1809" y="1922" type="curve" smooth="yes"/>
      <point x="1738" y="1922"/>
      <point x="1708" y="1908"/>
      <point x="1681" y="1893" type="curve"/>
      <point x="1756" y="1893"/>
      <point x="1792" y="1825"/>
    </contour>
  </outline>
</glyph>
<glyph name="uni179317B6" format="2">
  <advance width="2250"/>
  <anchor x="1200" y="0" name="L"/>
  <anchor x="1200" y="1440" name="U"/>
  <outline>
    <contour>
      <point x="1312" y="1117" type="curve" smooth="yes"/>
      <point x="1312" y="1339"/>
      <point x="1061" y="1440"/>
      <point x="836" y="1440" type="curve" smooth="yes"/>
      <point x="495" y="1440"/>
      <point x="262" y="1312"/>
      <point x="262" y="1061" type="curve"/>
      <point x="262" y="766"/>
      <point x="604" y="660"/>
      <point x="859" y="574" type="curve" smooth="yes"/>
      <point x="915" y="555"/>
      <point x="1012" y="514"/>
      <point x="1012" y="472" type="curve" smooth="yes"/>
      <point x="1012" y="176" type="line"/>
      <point x="874" y="191"/>
      <point x="675" y="259"/>
      <point x="562" y="337" type="curve"/>
      <point x="562" y="597" type="line"/>
      <point x="262" y="597" type="line"/>
      <point x="262" y="0" type="line"/>
      <point x="562" y="0" type="line"/>
      <point x="562" y="169" type="line"/>
      <point x="697" y="97"/>
      <point x="911" y="0"/>
      <point x="1084" y="0" type="curve"/>
      <point x="1170" y="0" type="line"/>
      <point x="1241" y="0"/>
      <point x="1312" y="37"/>
      <point x="1312" y="79" type="curve"/>
      <point x="1312" y="536" type="line"/>
      <point x="1312" y="600"/>
      <point x="1207" y="660"/>
      <point x="1061" y="705" type="curve"/>
      <point x="851" y="769"/>
      <point x="544" y="829"/>
      <point x="544" y="1042" type="curve" smooth="yes"/>
      <point x="544" y="1215"/>
      <point x="656" y="1290"/>
      <point x="817" y="1290" type="curve"/>
      <point x="956" y="1290"/>
      <point x="1050" y="1237"/>
      <point x="1050" y="1151" type="curve"/>
      <point x="1050" y="1136"/>
      <point x="1046" y="1106"/>
      <point x="1039" y="1095" type="curve"/>
      <point x="1024" y="1099"/>
      <point x="1009" y="1099"/>
      <point x="994" y="1099" type="curve"/>
      <point x="892" y="1099"/>
      <point x="832" y="1046"/>
      <point x="832" y="979" type="curve"/>
      <point x="832" y="892"/>
      <point x="934" y="851"/>
      <point x="1042" y="851" type="curve"/>
      <point x="1196" y="851"/>
      <point x="1312" y="971"/>
    </contour>
    <contour>
      <point x="1292" y="1112" type="line"/>
      <point x="1346" y="1153"/>
      <point x="1441" y="1192"/>
      <point x="1488" y="1192" type="curve" smooth="yes"/>
      <point x="1537" y="1192"/>
      <point x="1652" y="1123"/>
      <point x="1723" y="1072" type="curve" smooth="yes"/>
      <point x="1740" y="1060"/>
      <point x="1762" y="1039"/>
      <point x="1762" y="1014" type="curve" smooth="yes"/>
      <point x="1762" y="0" type="line"/>
      <point x="2062" y="0" type="line"/>
      <point x="2062" y="1063" type="line" smooth="yes"/>
      <point x="2062" y="1124"/>
      <point x="2027" y="1166"/>
      <point x="1965" y="1212" type="curve" smooth="yes"/>
      <point x="1907" y="1255"/>
      <point x="1616" y="1440"/>
      <point x="1544" y="1440" type="curve" smooth="yes"/>
      <point x="1437" y="1440"/>
      <point x="1267" y="1324"/>
      <point x="1187" y="1266" type="curve"/>
    </contour>
  </outline>
</glyph>
<glyph name="uni179A.spc" format="2">
  <advance width="988"/>
  <outline>
    <contour>
      <point x="380" y="292" type="curve" smooth="yes"/>
      <point x="380" y="347"/>
      <point x="452" y="382"/>
      <point x="500" y="384" type="curve"/>
      <point x="500" y="150" type="line"/>
      <point x="447" y="165"/>
      <point x="380" y="241"/>
    </contour>
    <contour>
      <point x="800" y="665" type="line"/>
      <point x="800" y="930" type="line" smooth="yes"/>
      <point x="800" y="995"/>
      <point x="579" y="1094"/>
      <point x="459" y="1134" type="curve"/>
      <point x="457" y="1135"/>
      <point x="456" y="1136"/>
      <point x="456" y="1138" type="curve"/>
      <point x="459" y="1153"/>
      <point x="466" y="1165"/>
      <point x="484" y="1177" type="curve"/>
      <point x="492" y="1183"/>
      <point x="502" y="1186"/>
      <point x="512" y="1186" type="curve" smooth="yes"/>
      <point x="601" y="1186"/>
      <point x="665" y="1105"/>
      <point x="770" y="1105" type="curve" smooth="yes"/>
      <point x="846" y="1105"/>
      <point x="898" y="1260"/>
      <point x="921" y="1346" type="curve"/>
      <point x="898" y="1336"/>
      <point x="874" y="1334"/>
      <point x="851" y="1334" type="curve" smooth="yes"/>
      <point x="796" y="1334"/>
      <point x="600" y="1440"/>
      <point x="528" y="1440" type="curve" smooth="yes"/>
      <point x="444" y="1440"/>
      <point x="341" y="1165"/>
      <point x="316" y="1061" type="curve"/>
      <point x="316" y="1055"/>
      <point x="318" y="1050"/>
      <point x="323" y="1049" type="curve"/>
      <point x="428" y="1037"/>
      <point x="500" y="963"/>
      <point x="500" y="919" type="curve" smooth="yes"/>
      <point x="500" y="665" type="line"/>
    </contour>
    <contour>
      <point x="500" y="742" type="line"/>
      <point x="500" y="555" type="line"/>
      <point x="370" y="532"/>
      <point x="273" y="414"/>
      <point x="273" y="290" type="curve"/>
      <point x="273" y="161"/>
      <point x="381" y="31"/>
      <point x="547" y="0" type="curve"/>
      <point x="662" y="0"/>
      <point x="770" y="32"/>
      <point x="800" y="108" type="curve"/>
      <point x="800" y="736" type="line"/>
    </contour>
  </outline>
</glyph>
<glyph name="uni179A17C5.right" format="2">
  <advance width="1538"/>
  <anchor x="394" y="0" name="M"/>
  <anchor x="600" y="1440" name="U"/>
  <outline>
    <contour>
      <point x="300" y="742" type="line"/>
      <point x="300" y="555" type="line"/>
      <point x="170" y="532"/>
      <point x="73" y="414"/>
      <point x="73" y="290" type="curve"/>
      <point x="73" y="161"/>
      <point x="181" y="31"/>
      <point x="347" y="0" type="curve"/>
      <point x="462" y="0"/>
      <point x="570" y="32"/>
      <point x="600" y="108" type="curve"/>
      <point x="600" y="736" type="line"/>
    </contour>
    <contour>
      <point x="195" y="290" type="curve" smooth="yes"/>
      <point x="195" y="363"/>
      <point x="234" y="439"/>
      <point x="300" y="458" type="curve"/>
      <point x="300" y="157" type="line"/>
      <point x="249" y="179"/>
      <point x="195" y="219"/>
    </contour>
    <contour>
      <point x="600" y="681" type="line"/>
      <point x="600" y="910" type="line" smooth="yes"/>
      <point x="600" y="975"/>
      <point x="379" y="1084"/>
      <point x="259" y="1124" type="curve" smooth="yes"/>
      <point x="257" y="1125"/>
      <point x="254" y="1127"/>
      <point x="256" y="1128" type="curve" smooth="yes"/>
      <point x="315" y="1167"/>
      <point x="540" y="1192"/>
      <point x="666" y="1192" type="curve" smooth="yes"/>
      <point x="735" y="1192"/>
      <point x="940" y="1085"/>
      <point x="1011" y="1039" type="curve" smooth="yes"/>
      <point x="1028" y="1028"/>
      <point x="1050" y="1009"/>
      <point x="1050" y="984" type="curve" smooth="yes"/>
      <point x="1050" y="0" type="line"/>
      <point x="1350" y="0" type="line"/>
      <point x="1350" y="1043" type="line" smooth="yes"/>
      <point x="1350" y="1104"/>
      <point x="1318" y="1149"/>
      <point x="1253" y="1192" type="curve" smooth="yes"/>
      <point x="1195" y="1230"/>
      <point x="794" y="1440"/>
      <point x="722" y="1440" type="curve" smooth="yes"/>
      <point x="513" y="1440"/>
      <point x="366" y="1377"/>
      <point x="254" y="1282" type="curve" smooth="yes"/>
      <point x="179" y="1218"/>
      <point x="136" y="1145"/>
      <point x="116" y="1061" type="curve"/>
      <point x="116" y="1055"/>
      <point x="118" y="1050"/>
      <point x="123" y="1049" type="curve" smooth="yes"/>
      <point x="228" y="1037"/>
      <point x="300" y="963"/>
      <point x="300" y="919" type="curve" smooth="yes"/>
      <point x="300" y="681" type="line"/>
    </contour>
    <contour>
      <point x="1080" y="1792" type="curve"/>
      <point x="1080" y="1410" type="line" smooth="yes"/>
      <point x="1080" y="1352"/>
      <point x="1056" y="1307"/>
      <point x="1023" y="1261" type="curve"/>
      <point x="1246" y="1170" type="line"/>
      <point x="1309" y="1257"/>
      <point x="1350" y="1323"/>
      <point x="1350" y="1410" type="curve" smooth="yes"/>
      <point x="1350" y="1788" type="line" smooth="yes"/>
      <point x="1350" y="1858"/>
      <point x="1180" y="1922"/>
      <point x="1097" y="1922" type="curve" smooth="yes"/>
      <point x="1026" y="1922"/>
      <point x="996" y="1908"/>
      <point x="969" y="1893" type="curve"/>
      <point x="1044" y="1893"/>
      <point x="1080" y="1825"/>
    </contour>
  </outline>
</glyph>
<glyph name="uni17A217C5.right" format="2">
  <advance width="2213"/>
  <anchor x="1275" y="0" name="L"/>
  <anchor x="1275" y="1440" name="U"/>
  <outline>
    <contour>
      <point x="975" y="895" type="line"/>
      <point x="975" y="735" type="line"/>
      <point x="600" y="735" type="line"/>
      <point x="600" y="930" type="line" smooth="yes"/>
      <point x="600" y="995"/>
      <point x="379" y="1094"/>
      <point x="259" y="1134" type="curve" smooth="yes"/>
      <point x="257" y="1135"/>
      <point x="256" y="1136"/>
      <point x="256" y="1138" type="curve"/>
      <point x="259" y="1153"/>
      <point x="266" y="1165"/>
      <point x="284" y="1177" type="curve" smooth="yes"/>
      <point x="292" y="1183"/>
      <point x="302" y="1186"/>
      <point x="312" y="1186" type="curve" smooth="yes"/>
      <point x="401" y="1186"/>
      <point x="465" y="1105"/>
      <point x="570" y="1105" type="curve" smooth="yes"/>
      <point x="646" y="1105"/>
      <point x="698" y="1260"/>
      <point x="721" y="1346" type="curve"/>
      <point x="698" y="1336"/>
      <point x="674" y="1334"/>
      <point x="651" y="1334" type="curve" smooth="yes"/>
      <point x="596" y="1334"/>
      <point x="400" y="1440"/>
      <point x="328" y="1440" type="curve" smooth="yes"/>
      <point x="244" y="1440"/>
      <point x="141" y="1165"/>
      <point x="116" y="1061" type="curve"/>
      <point x="116" y="1055"/>
      <point x="118" y="1050"/>
      <point x="123" y="1049" type="curve" smooth="yes"/>
      <point x="228" y="1037"/>
      <point x="300" y="963"/>
      <point x="300" y="919" type="curve" smooth="yes"/>
      <point x="300" y="555" type="line"/>
      <point x="170" y="532"/>
      <point x="73" y="414"/>
      <point x="73" y="290" type="curve" smooth="yes"/>
      <point x="73" y="161"/>
      <point x="181" y="31"/>
      <point x="347" y="0" type="curve"/>
      <point x="462" y="0"/>
      <point x="570" y="32"/>
      <point x="600" y="108" type="curve"/>
      <point x="600" y="566" type="line"/>
      <point x="975" y="566" type="line"/>
      <point x="975" y="555" type="line"/>
      <point x="845" y="532"/>
      <point x="748" y="414"/>
      <point x="748" y="290" type="curve" smooth="yes"/>
      <point x="748" y="161"/>
      <point x="856" y="31"/>
      <point x="1022" y="0" type="curve"/>
      <point x="1137" y="0"/>
      <point x="1245" y="32"/>
      <point x="1275" y="108" type="curve"/>
      <point x="1275" y="891" type="line"/>
    </contour>
    <contour>
      <point x="195" y="290" type="curve" smooth="yes"/>
      <point x="195" y="363"/>
      <point x="234" y="439"/>
      <point x="300" y="458" type="curve"/>
      <point x="300" y="157" type="line"/>
      <point x="249" y="179"/>
      <point x="195" y="219"/>
    </contour>
    <contour>
      <point x="870" y="290" type="curve" smooth="yes"/>
      <point x="870" y="363"/>
      <point x="909" y="439"/>
      <point x="975" y="458" type="curve"/>
      <point x="975" y="157" type="line"/>
      <point x="924" y="179"/>
      <point x="870" y="219"/>
    </contour>
    <contour>
      <point x="1275" y="681" type="line"/>
      <point x="1275" y="910" type="line" smooth="yes"/>
      <point x="1275" y="975"/>
      <point x="1054" y="1084"/>
      <point x="934" y="1124" type="curve" smooth="yes"/>
      <point x="932" y="1125"/>
      <point x="929" y="1127"/>
      <point x="931" y="1128" type="curve" smooth="yes"/>
      <point x="990" y="1167"/>
      <point x="1215" y="1192"/>
      <point x="1341" y="1192" type="curve" smooth="yes"/>
      <point x="1410" y="1192"/>
      <point x="1615" y="1085"/>
      <point x="1686" y="1039" type="curve" smooth="yes"/>
      <point x="1703" y="1028"/>
      <point x="1725" y="1009"/>
      <point x="1725" y="984" type="curve" smooth="yes"/>
      <point x="1725" y="0" type="line"/>
      <point x="2025" y="0" type="line"/>
      <point x="2025" y="1043" type="line" smooth="yes"/>
      <point x="2025" y="1104"/>
      <point x="1993" y="1149"/>
      <point x="1928" y="1192" type="curve" smooth="yes"/>
      <point x="1870" y="1230"/>
      <point x="1469" y="1440"/>
      <point x="1397" y="1440" type="curve" smooth="yes"/>
      <point x="1188" y="1440"/>
      <point x="1041" y="1377"/>
      <point x="929" y="1282" type="curve" smooth="yes"/>
      <point x="854" y="1218"/>
      <point x="811" y="1145"/>
      <point x="791" y="1061" type="curve"/>
      <point x="791" y="1055"/>
      <point x="793" y="1050"/>
      <point x="798" y="1049" type="curve" smooth="yes"/>
      <point x="903" y="1037"/>
      <point x="975" y="963"/>
      <point x="975" y="919" type="curve" smooth="yes"/>
      <point x="975" y="681" type="line"/>
    </contour>
    <contour>
      <point x="1755" y="1792" type="curve"/>
      <point x="1755" y="1410" type="line" smooth="yes"/>
      <point x="1755" y="1352"/>
      <point x="1731" y="1307"/>
      <point x="1698" y="1261" type="curve"/>
      <point x="1921" y="1170" type="line"/>
      <point x="1984" y="1257"/>
      <point x="2025" y="1323"/>
      <point x="2025" y="1410" type="curve" smooth="yes"/>
      <point x="2025" y="1788" type="line" smooth="yes"/>
      <point x="2025" y="1858"/>
      <point x="1855" y="1922"/>
      <point x="1772" y="1922" type="curve" smooth="yes"/>
      <point x="1701" y="1922"/>
      <point x="1671" y="1908"/>
      <point x="1644" y="1893" type="curve"/>
      <point x="1719" y="1893"/>
      <point x="1755" y="1825"/>
    </contour>
  </outline>
</glyph>
<glyph name="uni17C0.rightpart1" format="2">
  <advance width="750"/>
  <anchor x="562" y="-602" name="L"/>
  <anchor x="562" y="1725" name="U"/>
  <outline>
    <contour>
      <point x="262" y="825" type="line"/>
      <point x="262" y="-394" type="line" smooth="yes"/>
      <point x="262" y="-439"/>
      <point x="97" y="-469"/>
      <point x="37" y="-469" type="curve" smooth="yes"/>
      <point x="-23" y="-469"/>
      <point x="-188" y="-439"/>
      <point x="-188" y="-394" type="curve" smooth="yes"/>
      <point x="-188" y="-150" type="line"/>
      <point x="-488" y="-150" type="line"/>
      <point x="-488" y="-413" type="line" smooth="yes"/>
      <point x="-488" y="-506"/>
      <point x="-169" y="-600"/>
      <point x="37" y="-600" type="curve" smooth="yes"/>
      <point x="244" y="-600"/>
      <point x="562" y="-506"/>
      <point x="562" y="-413" type="curve" smooth="yes"/>
      <point x="562" y="825" type="line"/>
    </contour>
    <contour>
      <point x="562" y="515" type="line"/>
      <point x="562" y="910" type="line" smooth="yes"/>
      <point x="562" y="975"/>
      <point x="341" y="1084"/>
      <point x="221" y="1124" type="curve" smooth="yes"/>
      <point x="219" y="1125"/>
      <point x="218" y="1126"/>
      <point x="218" y="1128" type="curve"/>
      <point x="221" y="1143"/>
      <point x="228" y="1165"/>
      <point x="246" y="1177" type="curve" smooth="yes"/>
      <point x="254" y="1183"/>
      <point x="264" y="1186"/>
      <point x="274" y="1186" type="curve" smooth="yes"/>
      <point x="333" y="1186"/>
      <point x="407" y="1093"/>
      <point x="502" y="1093" type="curve" smooth="yes"/>
      <point x="619" y="1093"/>
      <point x="731" y="1215"/>
      <point x="731" y="1380" type="curve" smooth="yes"/>
      <point x="731" y="1732"/>
      <point x="518" y="1777"/>
      <point x="421" y="1777" type="curve" smooth="yes"/>
      <point x="346" y="1777"/>
      <point x="290" y="1749"/>
      <point x="290" y="1691" type="curve" smooth="yes"/>
      <point x="290" y="1631"/>
      <point x="337" y="1589"/>
      <point x="427" y="1560" type="curve" smooth="yes"/>
      <point x="526" y="1529"/>
      <point x="610" y="1494"/>
      <point x="610" y="1330" type="curve" smooth="yes"/>
      <point x="610" y="1313"/>
      <point x="604" y="1303"/>
      <point x="595" y="1303" type="curve" smooth="yes"/>
      <point x="540" y="1303"/>
      <point x="362" y="1440"/>
      <point x="290" y="1440" type="curve" smooth="yes"/>
      <point x="206" y="1440"/>
      <point x="103" y="1165"/>
      <point x="78" y="1061" type="curve"/>
      <point x="78" y="1055"/>
      <point x="80" y="1050"/>
      <point x="85" y="1049" type="curve" smooth="yes"/>
      <point x="190" y="1037"/>
      <point x="262" y="963"/>
      <point x="262" y="919" type="curve" smooth="yes"/>
      <point x="262" y="519" type="line"/>
    </contour>
  </outline>
</glyph>
<glyph name="uni17CA.lower" format="2">
  <anchor x="-188" y="1665" name="U"/>
  <anchor x="-188" y="1440" name="_U"/>
  <outline>
    <contour>
      <point x="-706" y="1494" type="curve" smooth="yes"/>
      <point x="-669" y="1494"/>
      <point x="-638" y="1548"/>
      <point x="-619" y="1572" type="curve" smooth="yes"/>
      <point x="-595" y="1601"/>
      <point x="-566" y="1636"/>
      <point x="-535" y="1636" type="curve" smooth="yes"/>
      <point x="-466" y="1636"/>
      <point x="-293" y="1494"/>
      <point x="-208" y="1494" type="curve" smooth="yes"/>
      <point x="-127" y="1494"/>
      <point x="-58" y="1579"/>
      <point x="-27" y="1665" type="curve"/>
      <point x="-50" y="1655"/>
      <point x="-74" y="1653"/>
      <point x="-97" y="1653" type="curve" smooth="yes"/>
      <point x="-162" y="1653"/>
      <point x="-407" y="1820"/>
      <point x="-479" y="1820" type="curve" smooth="yes"/>
      <point x="-503" y="1820"/>
      <point x="-540" y="1799"/>
      <point x="-574" y="1767" type="curve" smooth="yes"/>
      <point x="-601" y="1741"/>
      <point x="-631" y="1711"/>
      <point x="-659" y="1678" type="curve"/>
      <point x="-738" y="1703"/>
      <point x="-933" y="1820"/>
      <point x="-997" y="1820" type="curve" smooth="yes"/>
      <point x="-1161" y="1820"/>
      <point x="-1300" y="1715"/>
      <point x="-1356" y="1584" type="curve" smooth="yes"/>
      <point x="-1359" y="1577"/>
      <point x="-1360" y="1555"/>
      <point x="-1360" y="1549" type="curve" smooth="yes"/>
      <point x="-1360" y="1478"/>
      <point x="-1282" y="1422"/>
      <point x="-1209" y="1410" type="curve"/>
      <point x="-1028" y="1514" type="line"/>
      <point x="-1111" y="1530"/>
      <point x="-1175" y="1557"/>
      <point x="-1175" y="1594" type="curve" smooth="yes"/>
      <point x="-1175" y="1619"/>
      <point x="-1114" y="1636"/>
      <point x="-1063" y="1636" type="curve" smooth="yes"/>
      <point x="-994" y="1636"/>
      <point x="-791" y="1494"/>
    </contour>
  </outline>
</glyph>
<glyph name="uni17CA.ms.high" format="2">
  <outline>
    <contour>
      <point x="-716" y="1834" type="curve" smooth="yes"/>
      <point x="-679" y="1834"/>
      <point x="-648" y="1888"/>
      <point x="-629" y="1912" type="curve" smooth="yes"/>
      <point x="-605" y="1941"/>
      <point x="-576" y="1976"/>
      <point x="-545" y="1976" type="curve" smooth="yes"/>
      <point x="-476" y="1976"/>
      <point x="-303" y="1834"/>
      <point x="-218" y="1834" type="curve" smooth="yes"/>
      <point x="-137" y="1834"/>
      <point x="-68" y="1969"/>
      <point x="-37" y="2055" type="curve"/>
      <point x="-60" y="2045"/>
      <point x="-84" y="2043"/>
      <point x="-107" y="2043" type="curve" smooth="yes"/>
      <point x="-172" y="2043"/>
      <point x="-417" y="2210"/>
      <point x="-489" y="2210" type="curve" smooth="yes"/>
      <point x="-513" y="2210"/>
      <point x="-550" y="2189"/>
      <point x="-584" y="2157" type="curve" smooth="yes"/>
      <point x="-611" y="2131"/>
      <point x="-641" y="2101"/>
      <point x="-669" y="2068" type="curve"/>
      <point x="-748" y="2093"/>
      <point x="-943" y="2210"/>
      <point x="-1007" y="2210" type="curve" smooth="yes"/>
      <point x="-1171" y="2210"/>
      <point x="-1310" y="2055"/>
      <point x="-1366" y="1924" type="curve" smooth="yes"/>
      <point x="-1369" y="1917"/>
      <point x="-1370" y="1895"/>
      <point x="-1370" y="1889" type="curve" smooth="yes"/>
      <point x="-1370" y="1818"/>
      <point x="-1292" y="1762"/>
      <point x="-1219" y="1750" type="curve"/>
      <point x="-1038" y="1854" type="line"/>
      <point x="-1121" y="1870"/>
      <point x="-1185" y="1897"/>
      <point x="-1185" y="1934" type="curve" smooth="yes"/>
      <point x="-1185" y="1959"/>
      <point x="-1124" y="1976"/>
      <point x="-1073" y="1976" type="curve" smooth="yes"/>
      <point x="-1004" y="1976"/>
      <point x="-801" y="1834"/>
    </contour>
  </outline>
</glyph>
<glyph name="uni17D21783" format="2">
  <advance width="750"/>
  <anchor x="562" y="-713" name="L"/>
  <anchor x="562" y="1440" name="U"/>
  <outline>
    <contour>
      <point x="262" y="842" type="line"/>
      <point x="262" y="-506" type="line" smooth="yes"/>
      <point x="262" y="-551"/>
      <point x="191" y="-582"/>
      <point x="131" y="-582" type="curve" smooth="yes"/>
      <point x="71" y="-582"/>
      <point x="0" y="-566"/>
      <point x="0" y="-506" type="curve" smooth="yes"/>
      <point x="0" y="-465" type="line" smooth="yes"/>
      <point x="0" y="-394"/>
      <point x="-229" y="-375"/>
      <point x="-229" y="-319" type="curve" smooth="yes"/>
      <point x="-229" y="-297"/>
      <point x="-218" y="-289"/>
      <point x="-188" y="-289" type="curve" smooth="yes"/>
      <point x="-146" y="-289"/>
      <point x="-124" y="-360"/>
      <point x="-71" y="-360" type="curve" smooth="yes"/>
      <point x="15" y="-360"/>
      <point x="64" y="-315"/>
      <point x="71" y="-180" type="curve"/>
      <point x="49" y="-207"/>
      <point x="-4" y="-214"/>
      <point x="-38" y="-214" type="curve" smooth="yes"/>
      <point x="-94" y="-214"/>
      <point x="-116" y="-150"/>
      <point x="-195" y="-150" type="curve" smooth="yes"/>
      <point x="-289" y="-150"/>
      <point x="-353" y="-225"/>
      <point x="-353" y="-312" type="curve" smooth="yes"/>
      <point x="-353" y="-387"/>
      <point x="-282" y="-390"/>
      <point x="-282" y="-439" type="curve" smooth="yes"/>
      <point x="-282" y="-506" type="line" smooth="yes"/>
      <point x="-282" y="-551"/>
      <point x="-353" y="-582"/>
      <point x="-413" y="-582" type="curve" smooth="yes"/>
      <point x="-473" y="-582"/>
      <point x="-544" y="-551"/>
      <point x="-544" y="-506" type="curve" smooth="yes"/>
      <point x="-544" y="-233" type="line"/>
      <point x="-555" y="-169"/>
      <point x="-675" y="-150"/>
      <point x="-765" y="-150" type="curve"/>
      <point x="-878" y="-173"/>
      <point x="-954" y="-203"/>
      <point x="-954" y="-274" type="curve" smooth="yes"/>
      <point x="-954" y="-315"/>
      <point x="-909" y="-371"/>
      <point x="-826" y="-390" type="curve"/>
      <point x="-826" y="-533" type="line" smooth="yes"/>
      <point x="-826" y="-638"/>
      <point x="-623" y="-713"/>
      <point x="-413" y="-713" type="curve" smooth="yes"/>
      <point x="-304" y="-713"/>
      <point x="-214" y="-686"/>
      <point x="-150" y="-653" type="curve"/>
      <point x="-60" y="-686"/>
      <point x="22" y="-713"/>
      <point x="131" y="-713" type="curve" smooth="yes"/>
      <point x="337" y="-713"/>
      <point x="562" y="-626"/>
      <point x="562" y="-533" type="curve" smooth="yes"/>
      <point x="562" y="848" type="line"/>
    </contour>
    <contour>
      <point x="562" y="665" type="line"/>
      <point x="562" y="930" type="line" smooth="yes"/>
      <point x="562" y="995"/>
      <point x="341" y="1094"/>
      <point x="221" y="1134" type="curve" smooth="yes"/>
      <point x="219" y="1135"/>
      <point x="218" y="1136"/>
      <point x="218" y="1138" type="curve"/>
      <point x="221" y="1153"/>
      <point x="228" y="1165"/>
      <point x="246" y="1177" type="curve" smooth="yes"/>
      <point x="254" y="1183"/>
      <point x="264" y="1186"/>
      <point x="274" y="1186" type="curve" smooth="yes"/>
      <point x="363" y="1186"/>
      <point x="427" y="1105"/>
      <point x="532" y="1105" type="curve" smooth="yes"/>
      <point x="608" y="1105"/>
      <point x="660" y="1260"/>
      <point x="683" y="1346" type="curve"/>
      <point x="660" y="1336"/>
      <point x="636" y="1334"/>
      <point x="613" y="1334" type="curve" smooth="yes"/>
      <point x="558" y="1334"/>
      <point x="362" y="1440"/>
      <point x="290" y="1440" type="curve" smooth="yes"/>
      <point x="206" y="1440"/>
      <point x="103" y="1165"/>
      <point x="78" y="1061" type="curve"/>
      <point x="78" y="1055"/>
      <point x="80" y="1050"/>
      <point x="85" y="1049" type="curve" smooth="yes"/>
      <point x="190" y="1037"/>
      <point x="262" y="963"/>
      <point x="262" y="919" type="curve" smooth="yes"/>
      <point x="262" y="665" type="line"/>
    </contour>
  </outline>
</glyph>
<glyph name="uni17D21783.low.alt" format="2">
  <advance width="750"/>
  <anchor x="562" y="-1238" name="L"/>
  <anchor x="562" y="1440" name="U"/>
  <outline>
    <contour>
      <point x="262" y="831" type="line"/>
      <point x="262" y="-1031" type="line" smooth="yes"/>
      <point x="262" y="-1076"/>
      <point x="191" y="-1107"/>
      <point x="131" y="-1107" type="curve" smooth="yes"/>
      <point x="71" y="-1107"/>
      <point x="0" y="-1076"/>
      <point x="0" y="-1031" type="curve" smooth="yes"/>
      <point x="0" y="-788" type="line"/>
      <point x="-262" y="-788" type="line"/>
      <point x="-262" y="-1031" type="line" smooth="yes"/>
      <point x="-262" y="-1076"/>
      <point x="-353" y="-1107"/>
      <point x="-413" y="-1107" type="curve" smooth="yes"/>
      <point x="-473" y="-1107"/>
      <point x="-544" y="-1076"/>
      <point x="-544" y="-1031" type="curve" smooth="yes"/>
      <point x="-544" y="-870" type="line"/>
      <point x="-555" y="-806"/>
      <point x="-675" y="-788"/>
      <point x="-765" y="-788" type="curve"/>
      <point x="-878" y="-810"/>
      <point x="-954" y="-840"/>
      <point x="-954" y="-911" type="curve" smooth="yes"/>
      <point x="-954" y="-953"/>
      <point x="-909" y="-1009"/>
      <point x="-826" y="-1028" type="curve"/>
      <point x="-826" y="-1058" type="line" smooth="yes"/>
      <point x="-826" y="-1163"/>
      <point x="-623" y="-1238"/>
      <point x="-413" y="-1238" type="curve" smooth="yes"/>
      <point x="-304" y="-1238"/>
      <point x="-214" y="-1211"/>
      <point x="-150" y="-1178" type="curve"/>
      <point x="-60" y="-1211"/>
      <point x="22" y="-1238"/>
      <point x="131" y="-1238" type="curve" smooth="yes"/>
      <point x="337" y="-1238"/>
      <point x="562" y="-1151"/>
      <point x="562" y="-1058" type="curve" smooth="yes"/>
      <point x="562" y="826" type="line"/>
    </contour>
    <contour>
      <point x="562" y="665" type="line"/>
      <point x="562" y="930" type="line" smooth="yes"/>
      <point x="562" y="995"/>
      <point x="341" y="1094"/>
      <point x="221" y="1134" type="curve" smooth="yes"/>
      <point x="219" y="1135"/>
      <point x="218" y="1136"/>
      <point x="218" y="1138" type="curve"/>
      <point x="221" y="1153"/>
      <point x="228" y="1165"/>
      <point x="246" y="1177" type="curve" smooth="yes"/>
      <point x="254" y="1183"/>
      <point x="264" y="1186"/>
      <point x="274" y="1186" type="curve" smooth="yes"/>
      <point x="363" y="1186"/>
      <point x="427" y="1105"/>
      <point x="532" y="1105" type="curve" smooth="yes"/>
      <point x="608" y="1105"/>
      <point x="660" y="1260"/>
      <point x="683" y="1346" type="curve"/>
      <point x="660" y="1336"/>
      <point x="636" y="1334"/>
      <point x="613" y="1334" type="curve" smooth="yes"/>
      <point x="558" y="1334"/>
      <point x="362" y="1440"/>
      <point x="290" y="1440" type="curve" smooth="yes"/>
      <point x="206" y="1440"/>
      <point x="103" y="1165"/>
      <point x="78" y="1061" type="curve"/>
      <point x="78" y="1055"/>
      <point x="80" y="1050"/>
      <point x="85" y="1049" type="curve" smooth="yes"/>
      <point x="190" y="1037"/>
      <point x="262" y="963"/>
      <point x="262" y="919" type="curve" smooth="yes"/>
      <point x="262" y="665" type="line"/>
    </contour>
  </outline>
</glyph>
<glyph name="uni17D21788.low" format="2">
  <advance width="750"/>
  <anchor x="562" y="-1238" name="L"/>
  <anchor x="562" y="1440" name="U"/>
  <outline>
    <contour>
      <point x="262" y="880" type="line"/>
      <point x="262" y="-1031" type="line" smooth="yes"/>
      <point x="262" y="-1076"/>
      <point x="207" y="-1107"/>
      <point x="147" y="-1107" type="curve" smooth="yes"/>
      <point x="57" y="-1107"/>
      <point x="13" y="-1065"/>
      <point x="-14" y="-1039" type="curve"/>
      <point x="-62" y="-998"/>
      <point x="-197" y="-1001"/>
      <point x="-197" y="-956" type="curve" smooth="yes"/>
      <point x="-197" y="-934"/>
      <point x="-186" y="-927"/>
      <point x="-156" y="-927" type="curve" smooth="yes"/>
      <point x="-115" y="-927"/>
      <point x="-92" y="-997"/>
      <point x="-40" y="-997" type="curve" smooth="yes"/>
      <point x="46" y="-997"/>
      <point x="95" y="-953"/>
      <point x="103" y="-818" type="curve"/>
      <point x="80" y="-844"/>
      <point x="28" y="-851"/>
      <point x="-6" y="-851" type="curve" smooth="yes"/>
      <point x="-62" y="-851"/>
      <point x="-85" y="-788"/>
      <point x="-164" y="-788" type="curve" smooth="yes"/>
      <point x="-257" y="-788"/>
      <point x="-321" y="-863"/>
      <point x="-321" y="-949" type="curve" smooth="yes"/>
      <point x="-321" y="-1009"/>
      <point x="-306" y="-1046"/>
      <point x="-272" y="-1073" type="curve"/>
      <point x="-291" y="-1103"/>
      <point x="-334" y="-1107"/>
      <point x="-356" y="-1107" type="curve" smooth="yes"/>
      <point x="-416" y="-1107"/>
      <point x="-462" y="-1076"/>
      <point x="-462" y="-1031" type="curve" smooth="yes"/>
      <point x="-462" y="-990" type="line" smooth="yes"/>
      <point x="-462" y="-885"/>
      <point x="-640" y="-788"/>
      <point x="-850" y="-788" type="curve" smooth="yes"/>
      <point x="-1060" y="-788"/>
      <point x="-1238" y="-885"/>
      <point x="-1238" y="-990" type="curve" smooth="yes"/>
      <point x="-1238" y="-1155" type="line"/>
      <point x="-1227" y="-1219"/>
      <point x="-1106" y="-1238"/>
      <point x="-1016" y="-1238" type="curve"/>
      <point x="-903" y="-1215"/>
      <point x="-828" y="-1185"/>
      <point x="-828" y="-1114" type="curve" smooth="yes"/>
      <point x="-828" y="-1073"/>
      <point x="-873" y="-1016"/>
      <point x="-956" y="-998" type="curve"/>
      <point x="-956" y="-975" type="line" smooth="yes"/>
      <point x="-956" y="-930"/>
      <point x="-880" y="-919"/>
      <point x="-850" y="-919" type="curve" smooth="yes"/>
      <point x="-820" y="-919"/>
      <point x="-744" y="-930"/>
      <point x="-744" y="-975" type="curve" smooth="yes"/>
      <point x="-744" y="-1058" type="line" smooth="yes"/>
      <point x="-744" y="-1163"/>
      <point x="-562" y="-1238"/>
      <point x="-356" y="-1238" type="curve" smooth="yes"/>
      <point x="-259" y="-1238"/>
      <point x="-164" y="-1208"/>
      <point x="-107" y="-1178" type="curve"/>
      <point x="-51" y="-1211"/>
      <point x="53" y="-1238"/>
      <point x="147" y="-1238" type="curve" smooth="yes"/>
      <point x="353" y="-1238"/>
      <point x="562" y="-1151"/>
      <point x="562" y="-1058" type="curve" smooth="yes"/>
      <point x="562" y="836" type="line"/>
    </contour>
    <contour>
      <point x="562" y="665" type="line"/>
      <point x="562" y="930" type="line" smooth="yes"/>
      <point x="562" y="995"/>
      <point x="341" y="1094"/>
      <point x="221" y="1134" type="curve" smooth="yes"/>
      <point x="219" y="1135"/>
      <point x="218" y="1136"/>
      <point x="218" y="1138" type="curve"/>
      <point x="221" y="1153"/>
      <point x="228" y="1165"/>
      <point x="246" y="1177" type="curve" smooth="yes"/>
      <point x="254" y="1183"/>
      <point x="264" y="1186"/>
      <point x="274" y="1186" type="curve" smooth="yes"/>
      <point x="363" y="1186"/>
      <point x="427" y="1105"/>
      <point x="532" y="1105" type="curve" smooth="yes"/>
      <point x="608" y="1105"/>
      <point x="660" y="1260"/>
      <point x="683" y="1346" type="curve"/>
      <point x="660" y="1336"/>
      <point x="636" y="1334"/>
      <point x="613" y="1334" type="curve" smooth="yes"/>
      <point x="558" y="1334"/>
      <point x="362" y="1440"/>
      <point x="290" y="1440" type="curve" smooth="yes"/>
      <point x="206" y="1440"/>
      <point x="103" y="1165"/>
      <point x="78" y="1061" type="curve"/>
      <point x="78" y="1055"/>
      <point x="80" y="1050"/>
      <point x="85" y="1049" type="curve" smooth="yes"/>
      <point x="190" y="1037"/>
      <point x="262" y="963"/>
      <point x="262" y="919" type="curve" smooth="yes"/>
      <point x="262" y="665" type="line"/>
    </contour>
  </outline>
</glyph>
<glyph name="uni17D2178817B6.low.alt" format="2">
  <advance width="1500"/>
  <anchor x="562" y="-1238" name="L"/>
  <anchor x="562" y="1440" name="U"/>
  <outline>
    <contour>
      <point x="262" y="850" type="line"/>
      <point x="262" y="-1031" type="line" smooth="yes"/>
      <point x="262" y="-1076"/>
      <point x="207" y="-1107"/>
      <point x="147" y="-1107" type="curve" smooth="yes"/>
      <point x="87" y="-1107"/>
      <point x="32" y="-1076"/>
      <point x="32" y="-1031" type="curve" smooth="yes"/>
      <point x="32" y="-788" type="line"/>
      <point x="-250" y="-788" type="line"/>
      <point x="-250" y="-1031" type="line" smooth="yes"/>
      <point x="-250" y="-1076"/>
      <point x="-296" y="-1107"/>
      <point x="-356" y="-1107" type="curve" smooth="yes"/>
      <point x="-416" y="-1107"/>
      <point x="-462" y="-1076"/>
      <point x="-462" y="-1031" type="curve" smooth="yes"/>
      <point x="-462" y="-990" type="line" smooth="yes"/>
      <point x="-462" y="-885"/>
      <point x="-640" y="-788"/>
      <point x="-850" y="-788" type="curve" smooth="yes"/>
      <point x="-1060" y="-788"/>
      <point x="-1238" y="-885"/>
      <point x="-1238" y="-990" type="curve" smooth="yes"/>
      <point x="-1238" y="-1155" type="line"/>
      <point x="-1227" y="-1219"/>
      <point x="-1106" y="-1238"/>
      <point x="-1016" y="-1238" type="curve"/>
      <point x="-903" y="-1215"/>
      <point x="-828" y="-1185"/>
      <point x="-828" y="-1114" type="curve" smooth="yes"/>
      <point x="-828" y="-1073"/>
      <point x="-873" y="-1016"/>
      <point x="-956" y="-998" type="curve"/>
      <point x="-956" y="-975" type="line" smooth="yes"/>
      <point x="-956" y="-930"/>
      <point x="-880" y="-919"/>
      <point x="-850" y="-919" type="curve" smooth="yes"/>
      <point x="-820" y="-919"/>
      <point x="-744" y="-930"/>
      <point x="-744" y="-975" type="curve" smooth="yes"/>
      <point x="-744" y="-1058" type="line" smooth="yes"/>
      <point x="-744" y="-1163"/>
      <point x="-562" y="-1238"/>
      <point x="-356" y="-1238" type="curve" smooth="yes"/>
      <point x="-259" y="-1238"/>
      <point x="-164" y="-1208"/>
      <point x="-107" y="-1178" type="curve"/>
      <point x="-51" y="-1211"/>
      <point x="53" y="-1238"/>
      <point x="147" y="-1238" type="curve" smooth="yes"/>
      <point x="353" y="-1238"/>
      <point x="562" y="-1151"/>
      <point x="562" y="-1058" type="curve" smooth="yes"/>
      <point x="562" y="825" type="line"/>
    </contour>
    <contour>
      <point x="562" y="681" type="line"/>
      <point x="562" y="910" type="line" smooth="yes"/>
      <point x="562" y="975"/>
      <point x="341" y="1084"/>
      <point x="221" y="1124" type="curve" smooth="yes"/>
      <point x="219" y="1125"/>
      <point x="216" y="1127"/>
      <point x="218" y="1128" type="curve" smooth="yes"/>
      <point x="277" y="1167"/>
      <point x="502" y="1192"/>
      <point x="628" y="1192" type="curve" smooth="yes"/>
      <point x="697" y="1192"/>
      <point x="902" y="1085"/>
      <point x="973" y="1039" type="curve" smooth="yes"/>
      <point x="990" y="1028"/>
      <point x="1012" y="1009"/>
      <point x="1012" y="984" type="curve" smooth="yes"/>
      <point x="1012" y="0" type="line"/>
      <point x="1312" y="0" type="line"/>
      <point x="1312" y="1043" type="line" smooth="yes"/>
      <point x="1312" y="1104"/>
      <point x="1280" y="1149"/>
      <point x="1215" y="1192" type="curve" smooth="yes"/>
      <point x="1157" y="1230"/>
      <point x="756" y="1440"/>
      <point x="684" y="1440" type="curve" smooth="yes"/>
      <point x="475" y="1440"/>
      <point x="328" y="1377"/>
      <point x="216" y="1282" type="curve" smooth="yes"/>
      <point x="141" y="1218"/>
      <point x="98" y="1145"/>
      <point x="78" y="1061" type="curve"/>
      <point x="78" y="1055"/>
      <point x="80" y="1050"/>
      <point x="85" y="1049" type="curve" smooth="yes"/>
      <point x="190" y="1037"/>
      <point x="262" y="963"/>
      <point x="262" y="919" type="curve" smooth="yes"/>
      <point x="262" y="681" type="line"/>
    </contour>
  </outline>
</glyph>
<glyph name="uni17D2178817C5.right.alt" format="2">
  <advance width="1500"/>
  <anchor x="562" y="-713" name="L"/>
  <anchor x="562" y="1440" name="U"/>
  <outline>
    <contour>
      <point x="262" y="861" type="line"/>
      <point x="262" y="-506" type="line" smooth="yes"/>
      <point x="262" y="-551"/>
      <point x="207" y="-581"/>
      <point x="147" y="-581" type="curve" smooth="yes"/>
      <point x="87" y="-581"/>
      <point x="32" y="-551"/>
      <point x="32" y="-506" type="curve" smooth="yes"/>
      <point x="32" y="-150" type="line"/>
      <point x="-250" y="-150" type="line"/>
      <point x="-250" y="-525" type="line" smooth="yes"/>
      <point x="-250" y="-570"/>
      <point x="-326" y="-581"/>
      <point x="-356" y="-581" type="curve" smooth="yes"/>
      <point x="-386" y="-581"/>
      <point x="-462" y="-570"/>
      <point x="-462" y="-525" type="curve" smooth="yes"/>
      <point x="-462" y="-353" type="line" smooth="yes"/>
      <point x="-462" y="-248"/>
      <point x="-640" y="-150"/>
      <point x="-850" y="-150" type="curve" smooth="yes"/>
      <point x="-1060" y="-150"/>
      <point x="-1238" y="-248"/>
      <point x="-1238" y="-353" type="curve" smooth="yes"/>
      <point x="-1238" y="-630" type="line"/>
      <point x="-1227" y="-694"/>
      <point x="-1106" y="-713"/>
      <point x="-1016" y="-713" type="curve"/>
      <point x="-903" y="-690"/>
      <point x="-828" y="-660"/>
      <point x="-828" y="-589" type="curve" smooth="yes"/>
      <point x="-828" y="-548"/>
      <point x="-873" y="-491"/>
      <point x="-956" y="-473" type="curve"/>
      <point x="-956" y="-338" type="line" smooth="yes"/>
      <point x="-956" y="-293"/>
      <point x="-880" y="-282"/>
      <point x="-850" y="-282" type="curve" smooth="yes"/>
      <point x="-820" y="-282"/>
      <point x="-744" y="-293"/>
      <point x="-744" y="-338" type="curve" smooth="yes"/>
      <point x="-744" y="-510" type="line" smooth="yes"/>
      <point x="-744" y="-615"/>
      <point x="-566" y="-713"/>
      <point x="-356" y="-713" type="curve" smooth="yes"/>
      <point x="-259" y="-713"/>
      <point x="-164" y="-683"/>
      <point x="-107" y="-653" type="curve"/>
      <point x="-51" y="-686"/>
      <point x="53" y="-713"/>
      <point x="147" y="-713" type="curve" smooth="yes"/>
      <point x="353" y="-713"/>
      <point x="562" y="-626"/>
      <point x="562" y="-533" type="curve" smooth="yes"/>
      <point x="562" y="809" type="line"/>
    </contour>
    <contour>
      <point x="562" y="681" type="line"/>
      <point x="562" y="910" type="line" smooth="yes"/>
      <point x="562" y="975"/>
      <point x="341" y="1084"/>
      <point x="221" y="1124" type="curve" smooth="yes"/>
      <point x="219" y="1125"/>
      <point x="216" y="1127"/>
      <point x="218" y="1128" type="curve" smooth="yes"/>
      <point x="277" y="1167"/>
      <point x="502" y="1192"/>
      <point x="628" y="1192" type="curve" smooth="yes"/>
      <point x="697" y="1192"/>
      <point x="902" y="1085"/>
      <point x="973" y="1039" type="curve" smooth="yes"/>
      <point x="990" y="1028"/>
      <point x="1012" y="1009"/>
      <point x="1012" y="984" type="curve" smooth="yes"/>
      <point x="1012" y="0" type="line"/>
      <point x="1312" y="0" type="line"/>
      <point x="1312" y="1043" type="line" smooth="yes"/>
      <point x="1312" y="1104"/>
      <point x="1280" y="1149"/>
      <point x="1215" y="1192" type="curve" smooth="yes"/>
      <point x="1157" y="1230"/>
      <point x="756" y="1440"/>
      <point x="684" y="1440" type="curve" smooth="yes"/>
      <point x="475" y="1440"/>
      <point x="328" y="1377"/>
      <point x="216" y="1282" type="curve" smooth="yes"/>
      <point x="141" y="1218"/>
      <point x="98" y="1145"/>
      <point x="78" y="1061" type="curve"/>
      <point x="78" y="1055"/>
      <point x="80" y="1050"/>
      <point x="85" y="1049" type="curve" smooth="yes"/>
      <point x="190" y="1037"/>
      <point x="262" y="963"/>
      <point x="262" y="919" type="curve" smooth="yes"/>
      <point x="262" y="681" type="line"/>
    </contour>
    <contour>
      <point x="1042" y="1792" type="curve"/>
      <point x="1042" y="1410" type="line" smooth="yes"/>
      <point x="1042" y="1352"/>
      <point x="1018" y="1307"/>
      <point x="985" y="1261" type="curve"/>
      <point x="1208" y="1170" type="line"/>
      <point x="1271" y="1257"/>
      <point x="1312" y="1323"/>
      <point x="1312" y="1410" type="curve" smooth="yes"/>
      <point x="1312" y="1788" type="line" smooth="yes"/>
      <point x="1312" y="1858"/>
      <point x="1142" y="1922"/>
      <point x="1059" y="1922" type="curve" smooth="yes"/>
      <point x="988" y="1922"/>
      <point x="958" y="1908"/>
      <point x="931" y="1893" type="curve"/>
      <point x="1006" y="1893"/>
      <point x="1042" y="1825"/>
    </contour>
  </outline>
</glyph>
<glyph name="uni17D2178817C5.rightlow" format="2">
  <advance width="1500"/>
  <anchor x="562" y="-1238" name="L"/>
  <anchor x="562" y="1440" name="U"/>
  <outline>
    <contour>
      <point x="262" y="868" type="line"/>
      <point x="262" y="-1031" type="line" smooth="yes"/>
      <point x="262" y="-1076"/>
      <point x="207" y="-1107"/>
      <point x="147" y="-1107" type="curve" smooth="yes"/>
      <point x="57" y="-1107"/>
      <point x="13" y="-1065"/>
      <point x="-14" y="-1039" type="curve"/>
      <point x="-62" y="-998"/>
      <point x="-197" y="-1001"/>
      <point x="-197" y="-956" type="curve" smooth="yes"/>
      <point x="-197" y="-934"/>
      <point x="-186" y="-927"/>
      <point x="-156" y="-927" type="curve" smooth="yes"/>
      <point x="-115" y="-927"/>
      <point x="-92" y="-997"/>
      <point x="-40" y="-997" type="curve" smooth="yes"/>
      <point x="46" y="-997"/>
      <point x="95" y="-953"/>
      <point x="103" y="-818" type="curve"/>
      <point x="80" y="-844"/>
      <point x="28" y="-851"/>
      <point x="-6" y="-851" type="curve" smooth="yes"/>
      <point x="-62" y="-851"/>
      <point x="-85" y="-788"/>
      <point x="-164" y="-788" type="curve" smooth="yes"/>
      <point x="-257" y="-788"/>
      <point x="-321" y="-863"/>
      <point x="-321" y="-949" type="curve" smooth="yes"/>
      <point x="-321" y="-1009"/>
      <point x="-306" y="-1046"/>
      <point x="-272" y="-1073" type="curve"/>
      <point x="-291" y="-1103"/>
      <point x="-334" y="-1107"/>
      <point x="-356" y="-1107" type="curve" smooth="yes"/>
      <point x="-416" y="-1107"/>
      <point x="-462" y="-1076"/>
      <point x="-462" y="-1031" type="curve" smooth="yes"/>
      <point x="-462" y="-990" type="line" smooth="yes"/>
      <point x="-462" y="-885"/>
      <point x="-640" y="-788"/>
      <point x="-850" y="-788" type="curve" smooth="yes"/>
      <point x="-1060" y="-788"/>
      <point x="-1238" y="-885"/>
      <point x="-1238" y="-990" type="curve" smooth="yes"/>
      <point x="-1238" y="-1155" type="line"/>
      <point x="-1227" y="-1219"/>
      <point x="-1106" y="-1238"/>
      <point x="-1016" y="-1238" type="curve"/>
      <point x="-903" y="-1215"/>
      <point x="-828" y="-1185"/>
      <point x="-828" y="-1114" type="curve" smooth="yes"/>
      <point x="-828" y="-1073"/>
      <point x="-873" y="-1016"/>
      <point x="-956" y="-998" type="curve"/>
      <point x="-956" y="-975" type="line" smooth="yes"/>
      <point x="-956" y="-930"/>
      <point x="-880" y="-919"/>
      <point x="-850" y="-919" type="curve" smooth="yes"/>
      <point x="-820" y="-919"/>
      <point x="-744" y="-930"/>
      <point x="-744" y="-975" type="curve" smooth="yes"/>
      <point x="-744" y="-1058" type="line" smooth="yes"/>
      <point x="-744" y="-1163"/>
      <point x="-562" y="-1238"/>
      <point x="-356" y="-1238" type="curve" smooth="yes"/>
      <point x="-259" y="-1238"/>
      <point x="-164" y="-1208"/>
      <point x="-107" y="-1178" type="curve"/>
      <point x="-51" y="-1211"/>
      <point x="53" y="-1238"/>
      <point x="147" y="-1238" type="curve" smooth="yes"/>
      <point x="353" y="-1238"/>
      <point x="562" y="-1151"/>
      <point x="562" y="-1058" type="curve" smooth="yes"/>
      <point x="562" y="819" type="line"/>
    </contour>
    <contour>
      <point x="562" y="681" type="line"/>
      <point x="562" y="910" type="line" smooth="yes"/>
      <point x="562" y="975"/>
      <point x="341" y="1084"/>
      <point x="221" y="1124" type="curve" smooth="yes"/>
      <point x="219" y="1125"/>
      <point x="216" y="1127"/>
      <point x="218" y="1128" type="curve" smooth="yes"/>
      <point x="277" y="1167"/>
      <point x="502" y="1192"/>
      <point x="628" y="1192" type="curve" smooth="yes"/>
      <point x="697" y="1192"/>
      <point x="902" y="1085"/>
      <point x="973" y="1039" type="curve" smooth="yes"/>
      <point x="990" y="1028"/>
      <point x="1012" y="1009"/>
      <point x="1012" y="984" type="curve" smooth="yes"/>
      <point x="1012" y="0" type="line"/>
      <point x="1312" y="0" type="line"/>
      <point x="1312" y="1043" type="line" smooth="yes"/>
      <point x="1312" y="1104"/>
      <point x="1280" y="1149"/>
      <point x="1215" y="1192" type="curve" smooth="yes"/>
      <point x="1157" y="1230"/>
      <point x="756" y="1440"/>
      <point x="684" y="1440" type="curve" smooth="yes"/>
      <point x="475" y="1440"/>
      <point x="328" y="1377"/>
      <point x="216" y="1282" type="curve" smooth="yes"/>
      <point x="141" y="1218"/>
      <point x="98" y="1145"/>
      <point x="78" y="1061" type="curve"/>
      <point x="78" y="1055"/>
      <point x="80" y="1050"/>
      <point x="85" y="1049" type="curve" smooth="yes"/>
      <point x="190" y="1037"/>
      <point x="262" y="963"/>
      <point x="262" y="919" type="curve" smooth="yes"/>
      <point x="262" y="681" type="line"/>
    </contour>
    <contour>
      <point x="1042" y="1792" type="curve"/>
      <point x="1042" y="1410" type="line" smooth="yes"/>
      <point x="1042" y="1352"/>
      <point x="1018" y="1307"/>
      <point x="985" y="1261" type="curve"/>
      <point x="1208" y="1170" type="line"/>
      <point x="1271" y="1257"/>
      <point x="1312" y="1323"/>
      <point x="1312" y="1410" type="curve" smooth="yes"/>
      <point x="1312" y="1788" type="line" smooth="yes"/>
      <point x="1312" y="1858"/>
      <point x="1142" y="1922"/>
      <point x="1059" y="1922" type="curve" smooth="yes"/>
      <point x="988" y="1922"/>
      <point x="958" y="1908"/>
      <point x="931" y="1893" type="curve"/>
      <point x="1006" y="1893"/>
      <point x="1042" y="1825"/>
    </contour>
  </outline>
</glyph>
<glyph name="uni17D2179E.low" format="2">
  <advance width="750"/>
  <anchor x="562" y="-1238" name="L"/>
  <anchor x="562" y="1440" name="U"/>
  <outline>
    <contour>
      <point x="262" y="830" type="line"/>
      <point x="262" y="367" type="line"/>
      <point x="240" y="379"/>
      <point x="184" y="409"/>
      <point x="154" y="409" type="curve" smooth="yes"/>
      <point x="109" y="409"/>
      <point x="75" y="379"/>
      <point x="75" y="322" type="curve" smooth="yes"/>
      <point x="75" y="296"/>
      <point x="98" y="267"/>
      <point x="131" y="244" type="curve" smooth="yes"/>
      <point x="173" y="215"/>
      <point x="217" y="191"/>
      <point x="262" y="176" type="curve"/>
      <point x="262" y="-1047" type="line"/>
      <point x="229" y="-1036"/>
      <point x="75" y="-927"/>
      <point x="37" y="-927" type="curve" smooth="yes"/>
      <point x="0" y="-927"/>
      <point x="-150" y="-1047"/>
      <point x="-188" y="-1047" type="curve"/>
      <point x="-188" y="-990" type="line"/>
      <point x="-131" y="-979"/>
      <point x="-75" y="-941"/>
      <point x="-75" y="-900" type="curve" smooth="yes"/>
      <point x="-75" y="-829"/>
      <point x="-135" y="-799"/>
      <point x="-248" y="-788" type="curve"/>
      <point x="-334" y="-788"/>
      <point x="-458" y="-810"/>
      <point x="-488" y="-893" type="curve"/>
      <point x="-488" y="-1155" type="line" smooth="yes"/>
      <point x="-488" y="-1193"/>
      <point x="-416" y="-1238"/>
      <point x="-345" y="-1238" type="curve" smooth="yes"/>
      <point x="-263" y="-1238" type="line" smooth="yes"/>
      <point x="-135" y="-1238"/>
      <point x="-4" y="-1118"/>
      <point x="37" y="-1118" type="curve" smooth="yes"/>
      <point x="82" y="-1118"/>
      <point x="206" y="-1238"/>
      <point x="337" y="-1238" type="curve" smooth="yes"/>
      <point x="420" y="-1238" type="line" smooth="yes"/>
      <point x="491" y="-1238"/>
      <point x="562" y="-1193"/>
      <point x="562" y="-1155" type="curve" smooth="yes"/>
      <point x="562" y="127" type="line"/>
      <point x="656" y="127"/>
      <point x="724" y="184"/>
      <point x="750" y="232" type="curve"/>
      <point x="735" y="225"/>
      <point x="712" y="225"/>
      <point x="694" y="225" type="curve" smooth="yes"/>
      <point x="660" y="225"/>
      <point x="604" y="232"/>
      <point x="562" y="251" type="curve"/>
      <point x="562" y="821" type="line"/>
    </contour>
    <contour>
      <point x="562" y="665" type="line"/>
      <point x="562" y="930" type="line" smooth="yes"/>
      <point x="562" y="995"/>
      <point x="341" y="1094"/>
      <point x="221" y="1134" type="curve" smooth="yes"/>
      <point x="219" y="1135"/>
      <point x="218" y="1136"/>
      <point x="218" y="1138" type="curve"/>
      <point x="221" y="1153"/>
      <point x="228" y="1165"/>
      <point x="246" y="1177" type="curve" smooth="yes"/>
      <point x="254" y="1183"/>
      <point x="264" y="1186"/>
      <point x="274" y="1186" type="curve" smooth="yes"/>
      <point x="363" y="1186"/>
      <point x="427" y="1105"/>
      <point x="532" y="1105" type="curve" smooth="yes"/>
      <point x="608" y="1105"/>
      <point x="660" y="1260"/>
      <point x="683" y="1346" type="curve"/>
      <point x="660" y="1336"/>
      <point x="636" y="1334"/>
      <point x="613" y="1334" type="curve" smooth="yes"/>
      <point x="558" y="1334"/>
      <point x="362" y="1440"/>
      <point x="290" y="1440" type="curve" smooth="yes"/>
      <point x="206" y="1440"/>
      <point x="103" y="1165"/>
      <point x="78" y="1061" type="curve"/>
      <point x="78" y="1055"/>
      <point x="80" y="1050"/>
      <point x="85" y="1049" type="curve" smooth="yes"/>
      <point x="190" y="1037"/>
      <point x="262" y="963"/>
      <point x="262" y="919" type="curve" smooth="yes"/>
      <point x="262" y="665" type="line"/>
    </contour>
  </outline>
</glyph>
<glyph name="uni17D2179F17B6" format="2">
  <advance width="1500"/>
  <anchor x="562" y="-600" name="L"/>
  <anchor x="562" y="1440" name="U"/>
  <outline>
    <contour>
      <point x="262" y="847" type="line"/>
      <point x="262" y="367" type="line"/>
      <point x="234" y="376"/>
      <point x="209" y="382"/>
      <point x="191" y="382" type="curve" smooth="yes"/>
      <point x="154" y="382"/>
      <point x="116" y="352"/>
      <point x="116" y="315" type="curve" smooth="yes"/>
      <point x="116" y="262"/>
      <point x="139" y="236"/>
      <point x="165" y="217" type="curve" smooth="yes"/>
      <point x="190" y="200"/>
      <point x="224" y="183"/>
      <point x="262" y="168" type="curve"/>
      <point x="262" y="-394" type="line" smooth="yes"/>
      <point x="262" y="-439"/>
      <point x="97" y="-469"/>
      <point x="37" y="-469" type="curve" smooth="yes"/>
      <point x="-23" y="-469"/>
      <point x="-188" y="-439"/>
      <point x="-188" y="-394" type="curve" smooth="yes"/>
      <point x="-188" y="-236" type="line"/>
      <point x="-199" y="-169"/>
      <point x="-334" y="-150"/>
      <point x="-428" y="-150" type="curve"/>
      <point x="-525" y="-169"/>
      <point x="-581" y="-191"/>
      <point x="-581" y="-266" type="curve" smooth="yes"/>
      <point x="-581" y="-304"/>
      <point x="-536" y="-334"/>
      <point x="-488" y="-353" type="curve"/>
      <point x="-488" y="-413" type="line" smooth="yes"/>
      <point x="-488" y="-506"/>
      <point x="-169" y="-600"/>
      <point x="37" y="-600" type="curve" smooth="yes"/>
      <point x="244" y="-600"/>
      <point x="562" y="-506"/>
      <point x="562" y="-413" type="curve" smooth="yes"/>
      <point x="562" y="97" type="line"/>
      <point x="664" y="97"/>
      <point x="727" y="180"/>
      <point x="750" y="236" type="curve"/>
      <point x="735" y="229"/>
      <point x="686" y="225"/>
      <point x="675" y="225" type="curve" smooth="yes"/>
      <point x="645" y="225"/>
      <point x="606" y="230"/>
      <point x="562" y="242" type="curve"/>
      <point x="562" y="819" type="line"/>
    </contour>
    <contour>
      <point x="562" y="681" type="line"/>
      <point x="562" y="910" type="line" smooth="yes"/>
      <point x="562" y="975"/>
      <point x="341" y="1084"/>
      <point x="221" y="1124" type="curve" smooth="yes"/>
      <point x="219" y="1125"/>
      <point x="216" y="1127"/>
      <point x="218" y="1128" type="curve" smooth="yes"/>
      <point x="277" y="1167"/>
      <point x="502" y="1192"/>
      <point x="628" y="1192" type="curve" smooth="yes"/>
      <point x="697" y="1192"/>
      <point x="902" y="1085"/>
      <point x="973" y="1039" type="curve" smooth="yes"/>
      <point x="990" y="1028"/>
      <point x="1012" y="1009"/>
      <point x="1012" y="984" type="curve" smooth="yes"/>
      <point x="1012" y="0" type="line"/>
      <point x="1312" y="0" type="line"/>
      <point x="1312" y="1043" type="line" smooth="yes"/>
      <point x="1312" y="1104"/>
      <point x="1280" y="1149"/>
      <point x="1215" y="1192" type="curve" smooth="yes"/>
      <point x="1157" y="1230"/>
      <point x="756" y="1440"/>
      <point x="684" y="1440" type="curve" smooth="yes"/>
      <point x="475" y="1440"/>
      <point x="328" y="1377"/>
      <point x="216" y="1282" type="curve" smooth="yes"/>
      <point x="141" y="1218"/>
      <point x="98" y="1145"/>
      <point x="78" y="1061" type="curve"/>
      <point x="78" y="1055"/>
      <point x="80" y="1050"/>
      <point x="85" y="1049" type="curve" smooth="yes"/>
      <point x="190" y="1037"/>
      <point x="262" y="963"/>
      <point x="262" y="919" type="curve" smooth="yes"/>
      <point x="262" y="681" type="line"/>
    </contour>
  </outline>
</glyph>
<glyph name="uni17DD.ms.narrowhigh2" format="2">
  <outline>
    <contour>
      <point x="-394" y="2560" type="curve" smooth="yes"/>
      <point x="-634" y="2560"/>
      <point x="-780" y="2363"/>
      <point x="-847" y="2221" type="curve" smooth="yes"/>
      <point x="-897" y="2118"/>
      <point x="-744" y="2041"/>
      <point x="-688" y="2143" type="curve" smooth="yes"/>
      <point x="-625" y="2257"/>
      <point x="-524" y="2350"/>
      <point x="-394" y="2350" type="curve" smooth="yes"/>
      <point x="-264" y="2350"/>
      <point x="-162" y="2257"/>
      <point x="-100" y="2143" type="curve" smooth="yes"/>
      <point x="-44" y="2041"/>
      <point x="109" y="2118"/>
      <point x="59" y="2221" type="curve" smooth="yes"/>
      <point x="-7" y="2362"/>
      <point x="-154" y="2560"/>
    </contour>
  </outline>
</glyph>
